<svg xmlns="http://www.w3.org/2000/svg" version="1.1" xmlns:xlink="http://www.w3.org/1999/xlink" xmlns:svgjs="http://svgjs.dev/svgjs" width="1440" height="780" preserveAspectRatio="none" viewBox="0 0 1440 780">
    <g mask="url(&quot;#SvgjsMask2850&quot;)" fill="none">
        <g mask="url(&quot;#SvgjsMask2851&quot;)">
            <path d="M1086 438L1074 450L1062 450L1050 450L1038 450M1122 438L1110 450L1098 450L1086 450M1326 426L1314 414L1302 414L1290 414L1278 414L1266 414L1254 414L1242 414L1230 414L1218 414L1206 414L1194 414L1182 414L1170 414L1158 414M774 438L762 426L750 426L738 426M1098 438L1086 426L1074 426L1062 426L1050 426L1038 414M834 438L822 426L810 426L798 426L786 426L774 426L762 414L750 402L738 402L726 402L714 402M1434 390L1422 390L1410 390L1398 390L1386 390L1374 390L1362 390L1350 390L1338 390L1326 390L1314 378L1302 378L1290 378L1278 378M1206 438L1194 426L1182 426L1170 426L1158 426M1266 426L1254 438L1242 438L1230 438L1218 450L1206 450L1194 450L1182 450M870 426L858 438L846 450L834 450L822 450L810 450L798 450L786 450L774 450L762 450L750 450L738 462L726 462L714 462L702 462L690 462L678 462L666 462L654 462M1110 438L1098 426L1086 414L1074 414L1062 414L1050 414L1038 402L1026 402M1014 438L1002 450L990 450L978 450L966 450L954 450L942 450L930 450L918 450L906 450L894 450L882 450L870 450M1170 438L1158 450L1146 450L1134 462M1038 438L1026 426L1014 414L1002 414L990 414M1278 426L1266 438L1254 450L1242 450L1230 450L1218 462L1206 462L1194 462L1182 462L1170 462L1158 462L1146 462M1458 390L1446 390L1434 390L1422 402L1410 402L1398 402L1386 402L1374 414L1362 414L1350 426L1338 426L1326 426L1314 426L1302 426L1290 426L1278 426L1266 426L1254 426L1242 426L1230 426L1218 438L1206 438L1194 438L1182 438L1170 438L1158 438L1146 438L1134 438L1122 438L1110 438L1098 438L1086 438L1074 438L1062 438L1050 438L1038 438L1026 438L1014 438L1002 438L990 438L978 438L966 438L954 438L942 426L930 426L918 426L906 426L894 426L882 426L870 426L858 426L846 438L834 438L822 438L810 438L798 438L786 438L774 438L762 438L750 438L738 450" stroke="rgba(23, 159, 218, 1)" stroke-width="2"></path>
            <path d="M735 450 a3 3 0 1 0 6 0 a3 3 0 1 0 -6 0zM1035 450 a3 3 0 1 0 6 0 a3 3 0 1 0 -6 0zM1083 450 a3 3 0 1 0 6 0 a3 3 0 1 0 -6 0zM1155 414 a3 3 0 1 0 6 0 a3 3 0 1 0 -6 0zM735 426 a3 3 0 1 0 6 0 a3 3 0 1 0 -6 0zM1035 414 a3 3 0 1 0 6 0 a3 3 0 1 0 -6 0zM711 402 a3 3 0 1 0 6 0 a3 3 0 1 0 -6 0zM1275 378 a3 3 0 1 0 6 0 a3 3 0 1 0 -6 0zM1155 426 a3 3 0 1 0 6 0 a3 3 0 1 0 -6 0zM1179 450 a3 3 0 1 0 6 0 a3 3 0 1 0 -6 0zM651 462 a3 3 0 1 0 6 0 a3 3 0 1 0 -6 0zM1023 402 a3 3 0 1 0 6 0 a3 3 0 1 0 -6 0zM867 450 a3 3 0 1 0 6 0 a3 3 0 1 0 -6 0zM1131 462 a3 3 0 1 0 6 0 a3 3 0 1 0 -6 0zM987 414 a3 3 0 1 0 6 0 a3 3 0 1 0 -6 0zM1143 462 a3 3 0 1 0 6 0 a3 3 0 1 0 -6 0z" fill="rgba(23, 159, 218, 1)"></path>
            <path d="M870 474L858 462L846 462M1170 474L1158 486L1146 486L1134 486L1122 486L1110 486L1098 486L1086 486L1074 486L1062 486L1050 486L1038 486L1026 486L1014 486L1002 486L990 486L978 486L966 486L954 486M1122 474L1110 462L1098 462L1086 462L1074 462L1062 462L1050 462L1038 462L1026 462L1014 462L1002 462L990 462L978 462L966 462L954 462L942 462L930 462L918 462L906 462L894 462L882 462L870 462M930 474L918 486L906 486M822 474L810 462L798 462M1314 438L1302 438L1290 438L1278 438L1266 450M1350 438L1338 450L1326 450L1314 450M1422 414L1410 426L1398 426L1386 426L1374 438L1362 438L1350 450M942 474L930 486M1266 462L1254 474L1242 474M882 474L870 486L858 486M1182 474L1170 486M810 474L798 474L786 474L774 474L762 474L750 474L738 474L726 474L714 474L702 474L690 486L678 486M894 474L882 486M1458 402L1446 414L1434 414L1422 414L1410 414L1398 414L1386 414L1374 426L1362 426L1350 438L1338 438L1326 438L1314 438L1302 450L1290 450L1278 462L1266 462L1254 462L1242 462L1230 474L1218 474L1206 474L1194 474L1182 474L1170 474L1158 474L1146 474L1134 474L1122 474L1110 474L1098 474L1086 474L1074 474L1062 474L1050 474L1038 474L1026 474L1014 474L1002 474L990 474L978 474L966 474L954 474L942 474L930 474L918 474L906 474L894 474L882 474L870 474L858 474L846 474L834 474L822 474L810 474L798 486L786 486L774 486" stroke="rgba(23, 159, 218, 1)" stroke-width="2"></path>
            <path d="M771 486 a3 3 0 1 0 6 0 a3 3 0 1 0 -6 0zM843 462 a3 3 0 1 0 6 0 a3 3 0 1 0 -6 0zM951 486 a3 3 0 1 0 6 0 a3 3 0 1 0 -6 0zM867 462 a3 3 0 1 0 6 0 a3 3 0 1 0 -6 0zM903 486 a3 3 0 1 0 6 0 a3 3 0 1 0 -6 0zM795 462 a3 3 0 1 0 6 0 a3 3 0 1 0 -6 0zM1263 450 a3 3 0 1 0 6 0 a3 3 0 1 0 -6 0zM1311 450 a3 3 0 1 0 6 0 a3 3 0 1 0 -6 0zM1347 450 a3 3 0 1 0 6 0 a3 3 0 1 0 -6 0zM927 486 a3 3 0 1 0 6 0 a3 3 0 1 0 -6 0zM1239 474 a3 3 0 1 0 6 0 a3 3 0 1 0 -6 0zM855 486 a3 3 0 1 0 6 0 a3 3 0 1 0 -6 0zM1167 486 a3 3 0 1 0 6 0 a3 3 0 1 0 -6 0zM675 486 a3 3 0 1 0 6 0 a3 3 0 1 0 -6 0zM879 486 a3 3 0 1 0 6 0 a3 3 0 1 0 -6 0z" fill="rgba(23, 159, 218, 1)"></path>
            <path d="M1350 366L1338 354L1326 354L1314 354L1302 354M1362 366L1350 378L1338 378L1326 378M1422 378L1410 366L1398 366L1386 366M1254 366L1242 378L1230 378L1218 378M1458 378L1446 378L1434 378L1422 378L1410 378L1398 378L1386 378L1374 366L1362 366L1350 366L1338 366L1326 366L1314 366L1302 366L1290 366L1278 366L1266 366L1254 366L1242 366" stroke="rgba(23, 159, 218, 1)" stroke-width="2"></path>
            <path d="M1239 366 a3 3 0 1 0 6 0 a3 3 0 1 0 -6 0zM1299 354 a3 3 0 1 0 6 0 a3 3 0 1 0 -6 0zM1323 378 a3 3 0 1 0 6 0 a3 3 0 1 0 -6 0zM1383 366 a3 3 0 1 0 6 0 a3 3 0 1 0 -6 0zM1215 378 a3 3 0 1 0 6 0 a3 3 0 1 0 -6 0z" fill="rgba(23, 159, 218, 1)"></path>
            <path d="M1206 342L1194 330L1182 330L1170 330L1158 330M1230 342L1218 354L1206 354L1194 354L1182 354M1266 342L1254 330L1242 330L1230 330L1218 330L1206 330L1194 318M1290 342L1278 354L1266 354M1170 342L1158 354L1146 354L1134 354M1374 354L1362 354L1350 354M1242 342L1230 354L1218 366M1458 366L1446 366L1434 366L1422 354L1410 354L1398 354L1386 354L1374 354L1362 342L1350 342L1338 342L1326 342L1314 342L1302 342L1290 342L1278 342L1266 342L1254 342L1242 342L1230 342L1218 342L1206 342L1194 342L1182 342L1170 342L1158 342L1146 342L1134 342L1122 342L1110 330L1098 330" stroke="rgba(102, 72, 133, 1)" stroke-width="2"></path>
            <path d="M1095 330 a3 3 0 1 0 6 0 a3 3 0 1 0 -6 0zM1155 330 a3 3 0 1 0 6 0 a3 3 0 1 0 -6 0zM1179 354 a3 3 0 1 0 6 0 a3 3 0 1 0 -6 0zM1191 318 a3 3 0 1 0 6 0 a3 3 0 1 0 -6 0zM1263 354 a3 3 0 1 0 6 0 a3 3 0 1 0 -6 0zM1131 354 a3 3 0 1 0 6 0 a3 3 0 1 0 -6 0zM1347 354 a3 3 0 1 0 6 0 a3 3 0 1 0 -6 0zM1215 366 a3 3 0 1 0 6 0 a3 3 0 1 0 -6 0z" fill="rgba(102, 72, 133, 1)"></path>
            <path d="M1446 426L1434 426M1386 450L1374 450L1362 450M1398 450L1386 438M1218 486L1206 498L1194 498L1182 498L1170 498L1158 498M1230 486L1218 498M1458 426L1446 426L1434 438L1422 438L1410 438L1398 450L1386 450L1374 462L1362 462L1350 462L1338 462L1326 462L1314 462L1302 462L1290 462L1278 474L1266 486L1254 486L1242 486L1230 486L1218 486L1206 486L1194 486" stroke="rgba(102, 72, 133, 1)" stroke-width="2"></path>
            <path d="M1191 486 a3 3 0 1 0 6 0 a3 3 0 1 0 -6 0zM1431 426 a3 3 0 1 0 6 0 a3 3 0 1 0 -6 0zM1359 450 a3 3 0 1 0 6 0 a3 3 0 1 0 -6 0zM1383 438 a3 3 0 1 0 6 0 a3 3 0 1 0 -6 0zM1155 498 a3 3 0 1 0 6 0 a3 3 0 1 0 -6 0zM1215 498 a3 3 0 1 0 6 0 a3 3 0 1 0 -6 0z" fill="rgba(102, 72, 133, 1)"></path>
            <path d="M1326 330L1314 330L1302 330L1290 330L1278 330L1266 330L1254 318L1242 318L1230 318L1218 318L1206 318M1242 306L1230 294L1218 294L1206 294M1158 294L1146 282L1134 282M1314 318L1302 306L1290 306M1254 306L1242 294L1230 282L1218 282M1194 306L1182 306L1170 306L1158 306L1146 306L1134 306L1122 318L1110 318L1098 318L1086 318L1074 318L1062 318M1182 294L1170 282M1458 354L1446 342L1434 342L1422 342L1410 342L1398 342L1386 342L1374 342L1362 330L1350 330L1338 330L1326 330L1314 318L1302 318L1290 318L1278 306L1266 306L1254 306L1242 306L1230 306L1218 306L1206 306L1194 306L1182 294L1170 294L1158 294L1146 294L1134 294L1122 294L1110 294" stroke="rgba(23, 159, 218, 1)" stroke-width="2"></path>
            <path d="M1107 294 a3 3 0 1 0 6 0 a3 3 0 1 0 -6 0zM1203 318 a3 3 0 1 0 6 0 a3 3 0 1 0 -6 0zM1203 294 a3 3 0 1 0 6 0 a3 3 0 1 0 -6 0zM1131 282 a3 3 0 1 0 6 0 a3 3 0 1 0 -6 0zM1287 306 a3 3 0 1 0 6 0 a3 3 0 1 0 -6 0zM1215 282 a3 3 0 1 0 6 0 a3 3 0 1 0 -6 0zM1059 318 a3 3 0 1 0 6 0 a3 3 0 1 0 -6 0zM1167 282 a3 3 0 1 0 6 0 a3 3 0 1 0 -6 0z" fill="rgba(23, 159, 218, 1)"></path>
            <path d="M978 522L966 510L954 510L942 510M870 498L858 510L846 510M954 522L942 534M1242 498L1230 498M918 510L906 522L894 522L882 522L870 522M1350 474L1338 486L1326 486L1314 486L1302 486M882 510L870 510M798 498L786 510L774 510L762 510M1026 522L1014 510L1002 510L990 498L978 498L966 498L954 498L942 498L930 498L918 498L906 498L894 498L882 498M1038 522L1026 510L1014 498L1002 498M1158 510L1146 510L1134 510L1122 510L1110 510L1098 510L1086 522M762 498L750 498L738 498L726 498L714 498L702 498L690 498L678 498L666 498L654 498L642 498M1050 522L1038 510L1026 498M1062 522L1050 510M1098 498L1086 498L1074 498M1458 438L1446 450L1434 450L1422 450L1410 450L1398 462L1386 462L1374 474L1362 474L1350 474L1338 474L1326 474L1314 474L1302 474L1290 474L1278 486L1266 498L1254 498L1242 498L1230 510L1218 510L1206 510L1194 510L1182 510L1170 510L1158 510L1146 498L1134 498L1122 498L1110 498L1098 498L1086 510L1074 522L1062 522L1050 522L1038 522L1026 522L1014 522L1002 522L990 522L978 522L966 522L954 522L942 522L930 522L918 510L906 510L894 510L882 510L870 498L858 498L846 498L834 486L822 486L810 486L798 498L786 498L774 498L762 498L750 486L738 486L726 486L714 486" stroke="rgba(102, 72, 133, 1)" stroke-width="2"></path>
            <path d="M711 486 a3 3 0 1 0 6 0 a3 3 0 1 0 -6 0zM939 510 a3 3 0 1 0 6 0 a3 3 0 1 0 -6 0zM843 510 a3 3 0 1 0 6 0 a3 3 0 1 0 -6 0zM939 534 a3 3 0 1 0 6 0 a3 3 0 1 0 -6 0zM1227 498 a3 3 0 1 0 6 0 a3 3 0 1 0 -6 0zM867 522 a3 3 0 1 0 6 0 a3 3 0 1 0 -6 0zM1299 486 a3 3 0 1 0 6 0 a3 3 0 1 0 -6 0zM867 510 a3 3 0 1 0 6 0 a3 3 0 1 0 -6 0zM759 510 a3 3 0 1 0 6 0 a3 3 0 1 0 -6 0zM879 498 a3 3 0 1 0 6 0 a3 3 0 1 0 -6 0zM999 498 a3 3 0 1 0 6 0 a3 3 0 1 0 -6 0zM1083 522 a3 3 0 1 0 6 0 a3 3 0 1 0 -6 0zM639 498 a3 3 0 1 0 6 0 a3 3 0 1 0 -6 0zM1023 498 a3 3 0 1 0 6 0 a3 3 0 1 0 -6 0zM1047 510 a3 3 0 1 0 6 0 a3 3 0 1 0 -6 0zM1071 498 a3 3 0 1 0 6 0 a3 3 0 1 0 -6 0z" fill="rgba(102, 72, 133, 1)"></path>
            <path d="M1338 318L1326 306L1314 306L1302 294L1290 294M1458 330L1446 330L1434 330L1422 330L1410 330L1398 330L1386 330L1374 330L1362 318L1350 318L1338 318L1326 318" stroke="rgba(23, 159, 218, 1)" stroke-width="2"></path>
            <path d="M1323 318 a3 3 0 1 0 6 0 a3 3 0 1 0 -6 0zM1287 294 a3 3 0 1 0 6 0 a3 3 0 1 0 -6 0z" fill="rgba(23, 159, 218, 1)"></path>
            <path d="M1422 474L1410 462M1434 474L1422 462M1446 462L1434 462M1458 462L1446 462L1434 474L1422 474L1410 474L1398 474L1386 474L1374 486L1362 486L1350 498L1338 498L1326 498L1314 498L1302 498L1290 486" stroke="rgba(23, 159, 218, 1)" stroke-width="2"></path>
            <path d="M1287 486 a3 3 0 1 0 6 0 a3 3 0 1 0 -6 0zM1407 462 a3 3 0 1 0 6 0 a3 3 0 1 0 -6 0zM1419 462 a3 3 0 1 0 6 0 a3 3 0 1 0 -6 0zM1431 462 a3 3 0 1 0 6 0 a3 3 0 1 0 -6 0z" fill="rgba(23, 159, 218, 1)"></path>
            <path d="M1386 318L1374 306L1362 294M1398 318L1386 306L1374 294M1350 306L1338 306M1458 318L1446 318L1434 318L1422 318L1410 318L1398 318L1386 318L1374 318L1362 306L1350 306L1338 294" stroke="rgba(23, 159, 218, 1)" stroke-width="2"></path>
            <path d="M1335 294 a3 3 0 1 0 6 0 a3 3 0 1 0 -6 0zM1359 294 a3 3 0 1 0 6 0 a3 3 0 1 0 -6 0zM1371 294 a3 3 0 1 0 6 0 a3 3 0 1 0 -6 0zM1335 306 a3 3 0 1 0 6 0 a3 3 0 1 0 -6 0z" fill="rgba(23, 159, 218, 1)"></path>
            <path d="M1398 498L1386 486M1410 498L1398 486M1422 486L1410 486M1458 474L1446 474L1434 486L1422 486L1410 498L1398 498L1386 498L1374 498L1362 498" stroke="rgba(102, 72, 133, 1)" stroke-width="2"></path>
            <path d="M1359 498 a3 3 0 1 0 6 0 a3 3 0 1 0 -6 0zM1383 486 a3 3 0 1 0 6 0 a3 3 0 1 0 -6 0zM1395 486 a3 3 0 1 0 6 0 a3 3 0 1 0 -6 0zM1407 486 a3 3 0 1 0 6 0 a3 3 0 1 0 -6 0z" fill="rgba(102, 72, 133, 1)"></path>
            <path d="M1410 294L1398 306M1326 282L1314 294M1398 294L1386 294M1422 306L1410 306M1458 306L1446 306L1434 306L1422 306L1410 294L1398 294L1386 282L1374 282L1362 282L1350 282L1338 282L1326 282L1314 282L1302 282L1290 282L1278 282" stroke="rgba(102, 72, 133, 1)" stroke-width="2"></path>
            <path d="M1275 282 a3 3 0 1 0 6 0 a3 3 0 1 0 -6 0zM1395 306 a3 3 0 1 0 6 0 a3 3 0 1 0 -6 0zM1311 294 a3 3 0 1 0 6 0 a3 3 0 1 0 -6 0zM1383 294 a3 3 0 1 0 6 0 a3 3 0 1 0 -6 0zM1407 306 a3 3 0 1 0 6 0 a3 3 0 1 0 -6 0z" fill="rgba(102, 72, 133, 1)"></path>
            <path d="M1350 510L1338 522L1326 522L1314 522L1302 522L1290 522L1278 522L1266 522L1254 522L1242 522L1230 534M1038 534L1026 546L1014 546M1134 534L1122 522L1110 522L1098 522M990 534L978 546L966 546L954 558L942 558L930 558L918 558L906 558L894 558M1170 534L1158 522L1146 522L1134 522M1194 534L1182 522L1170 522M1218 522L1206 534M1122 534L1110 546L1098 546L1086 546M1002 534L990 546L978 558M1290 510L1278 498M1206 522L1194 522M1458 486L1446 486L1434 498L1422 498L1410 510L1398 510L1386 510L1374 510L1362 510L1350 510L1338 510L1326 510L1314 510L1302 510L1290 510L1278 510L1266 510L1254 510L1242 510L1230 522L1218 522L1206 522L1194 534L1182 534L1170 534L1158 534L1146 534L1134 534L1122 534L1110 534L1098 534L1086 534L1074 534L1062 534L1050 534L1038 534L1026 534L1014 534L1002 534L990 534L978 534L966 534L954 546L942 546" stroke="rgba(102, 72, 133, 1)" stroke-width="2"></path>
            <path d="M939 546 a3 3 0 1 0 6 0 a3 3 0 1 0 -6 0zM1227 534 a3 3 0 1 0 6 0 a3 3 0 1 0 -6 0zM1011 546 a3 3 0 1 0 6 0 a3 3 0 1 0 -6 0zM1095 522 a3 3 0 1 0 6 0 a3 3 0 1 0 -6 0zM891 558 a3 3 0 1 0 6 0 a3 3 0 1 0 -6 0zM1131 522 a3 3 0 1 0 6 0 a3 3 0 1 0 -6 0zM1167 522 a3 3 0 1 0 6 0 a3 3 0 1 0 -6 0zM1203 534 a3 3 0 1 0 6 0 a3 3 0 1 0 -6 0zM1083 546 a3 3 0 1 0 6 0 a3 3 0 1 0 -6 0zM975 558 a3 3 0 1 0 6 0 a3 3 0 1 0 -6 0zM1275 498 a3 3 0 1 0 6 0 a3 3 0 1 0 -6 0zM1191 522 a3 3 0 1 0 6 0 a3 3 0 1 0 -6 0z" fill="rgba(102, 72, 133, 1)"></path>
            <path d="M1122 270L1110 258L1098 246L1086 246L1074 246M1158 270L1146 258L1134 258L1122 258L1110 246L1098 234L1086 234L1074 234L1062 234L1050 234M1110 270L1098 282L1086 282L1074 282L1062 282L1050 282L1038 282M1290 270L1278 258L1266 258L1254 246L1242 246M1230 258L1218 270L1206 270L1194 270L1182 282M1170 270L1158 258M1182 270L1170 258M1086 270L1074 258L1062 258L1050 258L1038 258L1026 258L1014 258L1002 258L990 258L978 258M1458 294L1446 294L1434 294L1422 294L1410 282L1398 282L1386 270L1374 270L1362 270L1350 270L1338 270L1326 270L1314 270L1302 270L1290 270L1278 270L1266 270L1254 258L1242 258L1230 258L1218 258L1206 258L1194 258L1182 270L1170 270L1158 270L1146 270L1134 270L1122 270L1110 270L1098 270L1086 270L1074 270L1062 270" stroke="rgba(102, 72, 133, 1)" stroke-width="2"></path>
            <path d="M1059 270 a3 3 0 1 0 6 0 a3 3 0 1 0 -6 0zM1071 246 a3 3 0 1 0 6 0 a3 3 0 1 0 -6 0zM1047 234 a3 3 0 1 0 6 0 a3 3 0 1 0 -6 0zM1035 282 a3 3 0 1 0 6 0 a3 3 0 1 0 -6 0zM1239 246 a3 3 0 1 0 6 0 a3 3 0 1 0 -6 0zM1179 282 a3 3 0 1 0 6 0 a3 3 0 1 0 -6 0zM1155 258 a3 3 0 1 0 6 0 a3 3 0 1 0 -6 0zM1167 258 a3 3 0 1 0 6 0 a3 3 0 1 0 -6 0zM975 258 a3 3 0 1 0 6 0 a3 3 0 1 0 -6 0z" fill="rgba(102, 72, 133, 1)"></path>
            <path d="M1290 546L1278 534M1302 546L1290 534M1398 534L1386 522L1374 522L1362 522M1326 534L1314 534L1302 534M1266 546L1254 534L1242 534M1410 522L1398 522M1458 498L1446 498L1434 510L1422 510L1410 522L1398 534L1386 534L1374 534L1362 534L1350 534L1338 534L1326 534L1314 546L1302 546L1290 546L1278 546L1266 546L1254 546L1242 546L1230 546L1218 546L1206 546L1194 546L1182 546L1170 546L1158 546L1146 546" stroke="rgba(23, 159, 218, 1)" stroke-width="2"></path>
            <path d="M1143 546 a3 3 0 1 0 6 0 a3 3 0 1 0 -6 0zM1275 534 a3 3 0 1 0 6 0 a3 3 0 1 0 -6 0zM1287 534 a3 3 0 1 0 6 0 a3 3 0 1 0 -6 0zM1359 522 a3 3 0 1 0 6 0 a3 3 0 1 0 -6 0zM1299 534 a3 3 0 1 0 6 0 a3 3 0 1 0 -6 0zM1239 534 a3 3 0 1 0 6 0 a3 3 0 1 0 -6 0zM1395 522 a3 3 0 1 0 6 0 a3 3 0 1 0 -6 0z" fill="rgba(23, 159, 218, 1)"></path>
            <path d="M1230 246L1218 234L1206 234L1194 234L1182 234L1170 234M1254 234L1242 222L1230 222L1218 222M1302 246L1290 246M1326 258L1314 258L1302 258M1242 234L1230 234M1278 234L1266 246M1458 282L1446 282L1434 282L1422 282L1410 270L1398 270L1386 258L1374 258L1362 258L1350 258L1338 258L1326 258L1314 246L1302 246L1290 234L1278 234L1266 234L1254 234L1242 234L1230 246L1218 246L1206 246L1194 246L1182 246L1170 246L1158 246" stroke="rgba(23, 159, 218, 1)" stroke-width="2"></path>
            <path d="M1155 246 a3 3 0 1 0 6 0 a3 3 0 1 0 -6 0zM1167 234 a3 3 0 1 0 6 0 a3 3 0 1 0 -6 0zM1215 222 a3 3 0 1 0 6 0 a3 3 0 1 0 -6 0zM1287 246 a3 3 0 1 0 6 0 a3 3 0 1 0 -6 0zM1299 258 a3 3 0 1 0 6 0 a3 3 0 1 0 -6 0zM1227 234 a3 3 0 1 0 6 0 a3 3 0 1 0 -6 0zM1263 246 a3 3 0 1 0 6 0 a3 3 0 1 0 -6 0z" fill="rgba(23, 159, 218, 1)"></path>
            <path d="M1074 546L1062 558L1050 558M1014 558L1002 558L990 558M1134 558L1122 546M1086 558L1074 558M1050 546L1038 546M1458 510L1446 510L1434 522L1422 522L1410 534L1398 546L1386 546L1374 546L1362 546L1350 546L1338 546L1326 546L1314 558L1302 558L1290 558L1278 558L1266 558L1254 558L1242 558L1230 558L1218 558L1206 558L1194 558L1182 558L1170 558L1158 558L1146 558L1134 558L1122 558L1110 558L1098 558L1086 558L1074 546L1062 546L1050 546L1038 558L1026 558L1014 558L1002 570L990 570" stroke="rgba(23, 159, 218, 1)" stroke-width="2"></path>
            <path d="M987 570 a3 3 0 1 0 6 0 a3 3 0 1 0 -6 0zM1047 558 a3 3 0 1 0 6 0 a3 3 0 1 0 -6 0zM987 558 a3 3 0 1 0 6 0 a3 3 0 1 0 -6 0zM1119 546 a3 3 0 1 0 6 0 a3 3 0 1 0 -6 0zM1071 558 a3 3 0 1 0 6 0 a3 3 0 1 0 -6 0zM1035 546 a3 3 0 1 0 6 0 a3 3 0 1 0 -6 0z" fill="rgba(23, 159, 218, 1)"></path>
            <path d="M1458 270L1446 270L1434 270L1422 270L1410 258L1398 258L1386 246L1374 246L1362 246L1350 246L1338 246L1326 246L1314 234L1302 234L1290 222L1278 222L1266 222" stroke="rgba(23, 159, 218, 1)" stroke-width="2"></path>
            <path d="M1263 222 a3 3 0 1 0 6 0 a3 3 0 1 0 -6 0z" fill="rgba(23, 159, 218, 1)"></path>
            <path d="M1146 570L1134 582L1122 582L1110 582L1098 582M966 582L954 594L942 594L930 594M1194 570L1182 582L1170 582L1158 582L1146 582L1134 594L1122 594L1110 594M1002 582L990 594L978 594L966 594M978 582L966 570L954 570L942 570L930 570L918 570M1278 570L1266 582L1254 582M1230 570L1218 582L1206 582L1194 582L1182 594L1170 594L1158 594L1146 594L1134 606M1074 570L1062 582L1050 582L1038 582L1026 582L1014 582L1002 594L990 606L978 606M1086 570L1074 582L1062 594L1050 594L1038 594L1026 594L1014 606L1002 606M1242 570L1230 582M882 582L870 570L858 570L846 570L834 570L822 570L810 570M918 582L906 594M1458 522L1446 522L1434 534L1422 534L1410 546L1398 558L1386 558L1374 558L1362 558L1350 558L1338 558L1326 558L1314 570L1302 570L1290 570L1278 570L1266 570L1254 570L1242 570L1230 570L1218 570L1206 570L1194 570L1182 570L1170 570L1158 570L1146 570L1134 570L1122 570L1110 570L1098 570L1086 570L1074 570L1062 570L1050 570L1038 570L1026 570L1014 570L1002 582L990 582L978 582L966 582L954 582L942 582L930 582L918 582L906 582L894 582L882 582L870 582L858 582" stroke="rgba(102, 72, 133, 1)" stroke-width="2"></path>
            <path d="M855 582 a3 3 0 1 0 6 0 a3 3 0 1 0 -6 0zM1095 582 a3 3 0 1 0 6 0 a3 3 0 1 0 -6 0zM927 594 a3 3 0 1 0 6 0 a3 3 0 1 0 -6 0zM1107 594 a3 3 0 1 0 6 0 a3 3 0 1 0 -6 0zM963 594 a3 3 0 1 0 6 0 a3 3 0 1 0 -6 0zM915 570 a3 3 0 1 0 6 0 a3 3 0 1 0 -6 0zM1251 582 a3 3 0 1 0 6 0 a3 3 0 1 0 -6 0zM1131 606 a3 3 0 1 0 6 0 a3 3 0 1 0 -6 0zM975 606 a3 3 0 1 0 6 0 a3 3 0 1 0 -6 0zM999 606 a3 3 0 1 0 6 0 a3 3 0 1 0 -6 0zM1227 582 a3 3 0 1 0 6 0 a3 3 0 1 0 -6 0zM807 570 a3 3 0 1 0 6 0 a3 3 0 1 0 -6 0zM903 594 a3 3 0 1 0 6 0 a3 3 0 1 0 -6 0z" fill="rgba(102, 72, 133, 1)"></path>
            <path d="M1062 186L1050 198L1038 198L1026 198L1014 210L1002 210L990 210L978 210M1110 186L1098 198L1086 198L1074 198L1062 198L1050 210L1038 210L1026 210L1014 222L1002 222L990 222L978 222L966 222L954 222L942 222L930 222L918 222M978 198L966 186M1170 186L1158 198L1146 210L1134 210L1122 210L1110 210L1098 210L1086 210L1074 210L1062 210L1050 222L1038 222L1026 222L1014 234L1002 234L990 234L978 234L966 234L954 234L942 234L930 234M1122 186L1110 198M1158 186L1146 186M1218 210L1206 210L1194 210L1182 210L1170 210L1158 210L1146 222M1002 198L990 186L978 186M1014 198L1002 186M1026 186L1014 186M930 186L918 174L906 174L894 174L882 174L870 174L858 174L846 174M966 198L954 198L942 198L930 198L918 198L906 198L894 198L882 210L870 210L858 210L846 210L834 210M1458 258L1446 258L1434 258L1422 258L1410 246L1398 246L1386 234L1374 234L1362 234L1350 234L1338 234L1326 234L1314 222L1302 222L1290 210L1278 210L1266 210L1254 210L1242 210L1230 210L1218 210L1206 198L1194 186L1182 186L1170 186L1158 186L1146 198L1134 198L1122 186L1110 186L1098 186L1086 186L1074 186L1062 186L1050 186L1038 186L1026 186L1014 198L1002 198L990 198L978 198L966 198L954 186L942 186L930 186L918 186L906 186L894 186L882 186" stroke="rgba(23, 159, 218, 1)" stroke-width="2"></path>
            <path d="M879 186 a3 3 0 1 0 6 0 a3 3 0 1 0 -6 0zM975 210 a3 3 0 1 0 6 0 a3 3 0 1 0 -6 0zM915 222 a3 3 0 1 0 6 0 a3 3 0 1 0 -6 0zM963 186 a3 3 0 1 0 6 0 a3 3 0 1 0 -6 0zM927 234 a3 3 0 1 0 6 0 a3 3 0 1 0 -6 0zM1107 198 a3 3 0 1 0 6 0 a3 3 0 1 0 -6 0zM1143 186 a3 3 0 1 0 6 0 a3 3 0 1 0 -6 0zM1143 222 a3 3 0 1 0 6 0 a3 3 0 1 0 -6 0zM975 186 a3 3 0 1 0 6 0 a3 3 0 1 0 -6 0zM999 186 a3 3 0 1 0 6 0 a3 3 0 1 0 -6 0zM1011 186 a3 3 0 1 0 6 0 a3 3 0 1 0 -6 0zM843 174 a3 3 0 1 0 6 0 a3 3 0 1 0 -6 0zM831 210 a3 3 0 1 0 6 0 a3 3 0 1 0 -6 0z" fill="rgba(23, 159, 218, 1)"></path>
            <path d="M1254 594L1242 606M1290 594L1278 582M1278 594L1266 606L1254 606L1242 618L1230 618M1302 582L1290 582M1458 534L1446 534L1434 546L1422 546L1410 558L1398 570L1386 570L1374 570L1362 570L1350 570L1338 570L1326 570L1314 582L1302 582L1290 594L1278 594L1266 594L1254 594L1242 594L1230 594" stroke="rgba(102, 72, 133, 1)" stroke-width="2"></path>
            <path d="M1227 594 a3 3 0 1 0 6 0 a3 3 0 1 0 -6 0zM1239 606 a3 3 0 1 0 6 0 a3 3 0 1 0 -6 0zM1275 582 a3 3 0 1 0 6 0 a3 3 0 1 0 -6 0zM1227 618 a3 3 0 1 0 6 0 a3 3 0 1 0 -6 0zM1287 582 a3 3 0 1 0 6 0 a3 3 0 1 0 -6 0z" fill="rgba(102, 72, 133, 1)"></path>
            <path d="M906 162L894 150L882 150L870 150L858 150L846 150L834 150L822 150L810 150L798 150L786 150L774 138L762 138L750 138L738 126L726 126L714 126L702 126L690 126M1074 174L1062 162L1050 162L1038 162L1026 162L1014 162L1002 162L990 162L978 162L966 162L954 162L942 162L930 150L918 150L906 150L894 138L882 138M942 174L930 174M1086 174L1074 162M810 162L798 174L786 174L774 174L762 174M1122 174L1110 162L1098 162L1086 162M834 162L822 174L810 174L798 186L786 186L774 186L762 186L750 186L738 198L726 198M774 162L762 150L750 150L738 150L726 150L714 150L702 150L690 150L678 150L666 150L654 150L642 150M1362 222L1350 210L1338 210M750 162L738 174L726 174L714 174L702 174L690 174L678 174L666 174L654 174L642 174M1458 246L1446 246L1434 246L1422 246L1410 234L1398 234L1386 222L1374 222L1362 222L1350 222L1338 222L1326 222L1314 210L1302 210L1290 198L1278 198L1266 198L1254 198L1242 198L1230 198L1218 198L1206 186L1194 174L1182 174L1170 174L1158 174L1146 174L1134 174L1122 174L1110 174L1098 174L1086 174L1074 174L1062 174L1050 174L1038 174L1026 174L1014 174L1002 174L990 174L978 174L966 174L954 174L942 174L930 162L918 162L906 162L894 162L882 162L870 162L858 162L846 162L834 162L822 162L810 162L798 162L786 162L774 162L762 162L750 162L738 162" stroke="rgba(102, 72, 133, 1)" stroke-width="2"></path>
            <path d="M735 162 a3 3 0 1 0 6 0 a3 3 0 1 0 -6 0zM687 126 a3 3 0 1 0 6 0 a3 3 0 1 0 -6 0zM879 138 a3 3 0 1 0 6 0 a3 3 0 1 0 -6 0zM927 174 a3 3 0 1 0 6 0 a3 3 0 1 0 -6 0zM1071 162 a3 3 0 1 0 6 0 a3 3 0 1 0 -6 0zM759 174 a3 3 0 1 0 6 0 a3 3 0 1 0 -6 0zM1083 162 a3 3 0 1 0 6 0 a3 3 0 1 0 -6 0zM723 198 a3 3 0 1 0 6 0 a3 3 0 1 0 -6 0zM639 150 a3 3 0 1 0 6 0 a3 3 0 1 0 -6 0zM1335 210 a3 3 0 1 0 6 0 a3 3 0 1 0 -6 0zM639 174 a3 3 0 1 0 6 0 a3 3 0 1 0 -6 0z" fill="rgba(102, 72, 133, 1)"></path>
            <path d="M1458 546L1446 546L1434 558L1422 558L1410 570L1398 582L1386 582L1374 582L1362 582L1350 582L1338 582L1326 582" stroke="rgba(23, 159, 218, 1)" stroke-width="2"></path>
            <path d="M1323 582 a3 3 0 1 0 6 0 a3 3 0 1 0 -6 0z" fill="rgba(23, 159, 218, 1)"></path>
            <path d="M978 138L966 150L954 150L942 150M822 126L810 114L798 114L786 114L774 114L762 114L750 114L738 114L726 114L714 114L702 114M918 126L906 138M1134 162L1122 162M834 114L822 114M858 126L846 126L834 126L822 138L810 138L798 138L786 138M942 138L930 138L918 138M870 126L858 138L846 138L834 138M1014 150L1002 150L990 150L978 150M1146 162L1134 150M1374 210L1362 210M954 138L942 126M1458 234L1446 234L1434 234L1422 234L1410 222L1398 222L1386 210L1374 210L1362 198L1350 198L1338 198L1326 198L1314 198L1302 198L1290 186L1278 186L1266 186L1254 186L1242 186L1230 186L1218 186L1206 174L1194 162L1182 162L1170 162L1158 162L1146 162L1134 162L1122 150L1110 150L1098 150L1086 150L1074 150L1062 150L1050 150L1038 150L1026 150L1014 150L1002 138L990 138L978 138L966 138L954 138L942 138L930 126L918 126L906 126L894 126L882 126L870 126L858 126L846 114L834 114L822 126L810 126L798 126L786 126L774 126L762 126L750 126" stroke="rgba(102, 72, 133, 1)" stroke-width="2"></path>
            <path d="M747 126 a3 3 0 1 0 6 0 a3 3 0 1 0 -6 0zM939 150 a3 3 0 1 0 6 0 a3 3 0 1 0 -6 0zM699 114 a3 3 0 1 0 6 0 a3 3 0 1 0 -6 0zM903 138 a3 3 0 1 0 6 0 a3 3 0 1 0 -6 0zM1119 162 a3 3 0 1 0 6 0 a3 3 0 1 0 -6 0zM819 114 a3 3 0 1 0 6 0 a3 3 0 1 0 -6 0zM783 138 a3 3 0 1 0 6 0 a3 3 0 1 0 -6 0zM915 138 a3 3 0 1 0 6 0 a3 3 0 1 0 -6 0zM831 138 a3 3 0 1 0 6 0 a3 3 0 1 0 -6 0zM975 150 a3 3 0 1 0 6 0 a3 3 0 1 0 -6 0zM1131 150 a3 3 0 1 0 6 0 a3 3 0 1 0 -6 0zM1359 210 a3 3 0 1 0 6 0 a3 3 0 1 0 -6 0zM939 126 a3 3 0 1 0 6 0 a3 3 0 1 0 -6 0z" fill="rgba(102, 72, 133, 1)"></path>
            <path d="M1458 558L1446 558L1434 570L1422 570L1410 582L1398 594L1386 594L1374 594L1362 594L1350 594L1338 594L1326 594L1314 594L1302 594L1290 606" stroke="rgba(102, 72, 133, 1)" stroke-width="2"></path>
            <path d="M1287 606 a3 3 0 1 0 6 0 a3 3 0 1 0 -6 0z" fill="rgba(102, 72, 133, 1)"></path>
            <path d="M1338 186L1326 174M810 102L798 90L786 78L774 78L762 78M822 102L810 90M966 126L954 126M1314 186L1302 174M834 102L822 90M1158 150L1146 150M1458 222L1446 222L1434 222L1422 222L1410 210L1398 210L1386 198L1374 198L1362 186L1350 186L1338 186L1326 186L1314 186L1302 186L1290 174L1278 174L1266 174L1254 174L1242 174L1230 174L1218 174L1206 162L1194 150L1182 150L1170 150L1158 150L1146 138L1134 138L1122 138L1110 138L1098 138L1086 138L1074 138L1062 138L1050 138L1038 138L1026 138L1014 138L1002 126L990 126L978 126L966 126L954 114L942 114L930 114L918 114L906 114L894 114L882 114L870 114L858 114L846 102L834 102L822 102L810 102L798 102L786 102" stroke="rgba(102, 72, 133, 1)" stroke-width="2"></path>
            <path d="M783 102 a3 3 0 1 0 6 0 a3 3 0 1 0 -6 0zM1323 174 a3 3 0 1 0 6 0 a3 3 0 1 0 -6 0zM759 78 a3 3 0 1 0 6 0 a3 3 0 1 0 -6 0zM807 90 a3 3 0 1 0 6 0 a3 3 0 1 0 -6 0zM951 126 a3 3 0 1 0 6 0 a3 3 0 1 0 -6 0zM1299 174 a3 3 0 1 0 6 0 a3 3 0 1 0 -6 0zM819 90 a3 3 0 1 0 6 0 a3 3 0 1 0 -6 0zM1143 150 a3 3 0 1 0 6 0 a3 3 0 1 0 -6 0z" fill="rgba(102, 72, 133, 1)"></path>
            <path d="M1338 606L1326 618M1290 618L1278 630M1314 606L1302 618L1290 630M1458 570L1446 570L1434 582L1422 582L1410 594L1398 606L1386 606L1374 606L1362 606L1350 606L1338 606L1326 606L1314 606L1302 606L1290 618L1278 618" stroke="rgba(102, 72, 133, 1)" stroke-width="2"></path>
            <path d="M1275 618 a3 3 0 1 0 6 0 a3 3 0 1 0 -6 0zM1323 618 a3 3 0 1 0 6 0 a3 3 0 1 0 -6 0zM1275 630 a3 3 0 1 0 6 0 a3 3 0 1 0 -6 0zM1287 630 a3 3 0 1 0 6 0 a3 3 0 1 0 -6 0z" fill="rgba(102, 72, 133, 1)"></path>
            <path d="M1074 126L1062 114L1050 114L1038 114M1278 162L1266 150L1254 150L1242 150L1230 150L1218 150M1314 162L1302 150L1290 150M978 114L966 102M1386 186L1374 186M1326 162L1314 150M1350 174L1338 174M846 90L834 90M1458 210L1446 210L1434 210L1422 210L1410 198L1398 198L1386 186L1374 174L1362 174L1350 174L1338 162L1326 162L1314 162L1302 162L1290 162L1278 162L1266 162L1254 162L1242 162L1230 162L1218 162L1206 150L1194 138L1182 138L1170 138L1158 138L1146 126L1134 126L1122 126L1110 126L1098 126L1086 126L1074 126L1062 126L1050 126L1038 126L1026 126L1014 126L1002 114L990 114L978 114L966 114L954 102L942 102L930 102L918 102L906 102L894 102L882 102L870 102L858 102L846 90L834 78L822 78L810 78" stroke="rgba(102, 72, 133, 1)" stroke-width="2"></path>
            <path d="M807 78 a3 3 0 1 0 6 0 a3 3 0 1 0 -6 0zM1035 114 a3 3 0 1 0 6 0 a3 3 0 1 0 -6 0zM1215 150 a3 3 0 1 0 6 0 a3 3 0 1 0 -6 0zM1287 150 a3 3 0 1 0 6 0 a3 3 0 1 0 -6 0zM963 102 a3 3 0 1 0 6 0 a3 3 0 1 0 -6 0zM1371 186 a3 3 0 1 0 6 0 a3 3 0 1 0 -6 0zM1311 150 a3 3 0 1 0 6 0 a3 3 0 1 0 -6 0zM1335 174 a3 3 0 1 0 6 0 a3 3 0 1 0 -6 0zM831 90 a3 3 0 1 0 6 0 a3 3 0 1 0 -6 0z" fill="rgba(102, 72, 133, 1)"></path>
            <path d="M846 606L834 594L822 594L810 594L798 594L786 594L774 594L762 594L750 594L738 594M858 606L846 618L834 618L822 618L810 618L798 618L786 630L774 630L762 630M906 606L894 618L882 618M1326 642L1314 654L1302 654L1290 654L1278 654L1266 654L1254 654L1242 654L1230 666M1242 642L1230 642L1218 642L1206 642L1194 642L1182 642L1170 642M1314 642L1302 630M1158 654L1146 654M1194 654L1182 666L1170 666L1158 666L1146 666L1134 666L1122 666L1110 678L1098 678L1086 678L1074 678L1062 678L1050 678L1038 678L1026 678L1014 678M1134 642L1122 630L1110 630M1050 630L1038 618M1350 630L1338 630M1386 618L1374 630L1362 630L1350 642M1122 642L1110 654L1098 654L1086 654M954 606L942 618L930 618L918 618M1458 582L1446 582L1434 594L1422 594L1410 606L1398 618L1386 618L1374 618L1362 618L1350 630L1338 642L1326 642L1314 642L1302 642L1290 642L1278 642L1266 642L1254 642L1242 642L1230 654L1218 654L1206 654L1194 654L1182 654L1170 654L1158 654L1146 642L1134 642L1122 642L1110 642L1098 642L1086 642L1074 642L1062 630L1050 630L1038 630L1026 630L1014 630L1002 618L990 618L978 618L966 606L954 606L942 606L930 606L918 606L906 606L894 606L882 606L870 606L858 606L846 606L834 606L822 606L810 606L798 606L786 618" stroke="rgba(23, 159, 218, 1)" stroke-width="2"></path>
            <path d="M783 618 a3 3 0 1 0 6 0 a3 3 0 1 0 -6 0zM735 594 a3 3 0 1 0 6 0 a3 3 0 1 0 -6 0zM759 630 a3 3 0 1 0 6 0 a3 3 0 1 0 -6 0zM879 618 a3 3 0 1 0 6 0 a3 3 0 1 0 -6 0zM1227 666 a3 3 0 1 0 6 0 a3 3 0 1 0 -6 0zM1167 642 a3 3 0 1 0 6 0 a3 3 0 1 0 -6 0zM1299 630 a3 3 0 1 0 6 0 a3 3 0 1 0 -6 0zM1143 654 a3 3 0 1 0 6 0 a3 3 0 1 0 -6 0zM1011 678 a3 3 0 1 0 6 0 a3 3 0 1 0 -6 0zM1107 630 a3 3 0 1 0 6 0 a3 3 0 1 0 -6 0zM1035 618 a3 3 0 1 0 6 0 a3 3 0 1 0 -6 0zM1335 630 a3 3 0 1 0 6 0 a3 3 0 1 0 -6 0zM1347 642 a3 3 0 1 0 6 0 a3 3 0 1 0 -6 0zM1083 654 a3 3 0 1 0 6 0 a3 3 0 1 0 -6 0zM915 618 a3 3 0 1 0 6 0 a3 3 0 1 0 -6 0z" fill="rgba(23, 159, 218, 1)"></path>
            <path d="M786 66L774 54L762 54L750 54L738 66L726 66L714 66M1242 138L1230 126L1218 126L1206 126L1194 114L1182 114M1074 102L1062 90L1050 90L1038 90M966 90L954 78M1158 114L1146 102L1134 102L1122 102L1110 102L1098 102L1086 102L1074 90L1062 78L1050 78L1038 78L1026 78M1434 198L1422 186L1410 174L1398 162L1386 162L1374 150L1362 150L1350 150L1338 138L1326 126L1314 126M1026 114L1014 102L1002 90L990 90L978 78L966 78L954 66L942 66L930 66L918 66L906 66L894 66L882 66L870 66L858 66L846 66L834 54M906 90L894 78L882 78L870 78L858 78M930 90L918 78L906 78M1302 138L1290 126M1410 186L1398 186M1446 198L1434 186M1278 138L1266 126L1254 114M810 66L798 54L786 54L774 42L762 42L750 42L738 30L726 30L714 30L702 30M1458 198L1446 198L1434 198L1422 198L1410 186L1398 174L1386 174L1374 162L1362 162L1350 162L1338 150L1326 138L1314 138L1302 138L1290 138L1278 138L1266 138L1254 138L1242 138L1230 138L1218 138L1206 138L1194 126L1182 126L1170 126L1158 114L1146 114L1134 114L1122 114L1110 114L1098 114L1086 114L1074 102L1062 102L1050 102L1038 102L1026 114L1014 114L1002 102L990 102L978 90L966 90L954 90L942 90L930 90L918 90L906 90L894 90L882 90L870 90L858 90L846 78L834 66L822 66L810 66L798 66L786 66L774 66L762 66" stroke="rgba(102, 72, 133, 1)" stroke-width="2"></path>
            <path d="M759 66 a3 3 0 1 0 6 0 a3 3 0 1 0 -6 0zM711 66 a3 3 0 1 0 6 0 a3 3 0 1 0 -6 0zM1179 114 a3 3 0 1 0 6 0 a3 3 0 1 0 -6 0zM1035 90 a3 3 0 1 0 6 0 a3 3 0 1 0 -6 0zM951 78 a3 3 0 1 0 6 0 a3 3 0 1 0 -6 0zM1023 78 a3 3 0 1 0 6 0 a3 3 0 1 0 -6 0zM1311 126 a3 3 0 1 0 6 0 a3 3 0 1 0 -6 0zM831 54 a3 3 0 1 0 6 0 a3 3 0 1 0 -6 0zM855 78 a3 3 0 1 0 6 0 a3 3 0 1 0 -6 0zM903 78 a3 3 0 1 0 6 0 a3 3 0 1 0 -6 0zM1287 126 a3 3 0 1 0 6 0 a3 3 0 1 0 -6 0zM1395 186 a3 3 0 1 0 6 0 a3 3 0 1 0 -6 0zM1431 186 a3 3 0 1 0 6 0 a3 3 0 1 0 -6 0zM1251 114 a3 3 0 1 0 6 0 a3 3 0 1 0 -6 0zM699 30 a3 3 0 1 0 6 0 a3 3 0 1 0 -6 0z" fill="rgba(102, 72, 133, 1)"></path>
        </g>
    </g>
    <defs>
        <mask id="SvgjsMask2850">
            <rect width="1440" height="780" fill="#ffffff"></rect>
        </mask>
        <mask id="SvgjsMask2851">
            <rect width="1440" height="780" fill="white"></rect>
            <path d="M736.5 450 a1.5 1.5 0 1 0 3 0 a1.5 1.5 0 1 0 -3 0zM1036.5 450 a1.5 1.5 0 1 0 3 0 a1.5 1.5 0 1 0 -3 0zM1084.5 450 a1.5 1.5 0 1 0 3 0 a1.5 1.5 0 1 0 -3 0zM1156.5 414 a1.5 1.5 0 1 0 3 0 a1.5 1.5 0 1 0 -3 0zM736.5 426 a1.5 1.5 0 1 0 3 0 a1.5 1.5 0 1 0 -3 0zM1036.5 414 a1.5 1.5 0 1 0 3 0 a1.5 1.5 0 1 0 -3 0zM712.5 402 a1.5 1.5 0 1 0 3 0 a1.5 1.5 0 1 0 -3 0zM1276.5 378 a1.5 1.5 0 1 0 3 0 a1.5 1.5 0 1 0 -3 0zM1156.5 426 a1.5 1.5 0 1 0 3 0 a1.5 1.5 0 1 0 -3 0zM1180.5 450 a1.5 1.5 0 1 0 3 0 a1.5 1.5 0 1 0 -3 0zM652.5 462 a1.5 1.5 0 1 0 3 0 a1.5 1.5 0 1 0 -3 0zM1024.5 402 a1.5 1.5 0 1 0 3 0 a1.5 1.5 0 1 0 -3 0zM868.5 450 a1.5 1.5 0 1 0 3 0 a1.5 1.5 0 1 0 -3 0zM1132.5 462 a1.5 1.5 0 1 0 3 0 a1.5 1.5 0 1 0 -3 0zM988.5 414 a1.5 1.5 0 1 0 3 0 a1.5 1.5 0 1 0 -3 0zM1144.5 462 a1.5 1.5 0 1 0 3 0 a1.5 1.5 0 1 0 -3 0z" fill="black"></path>
            <path d="M772.5 486 a1.5 1.5 0 1 0 3 0 a1.5 1.5 0 1 0 -3 0zM844.5 462 a1.5 1.5 0 1 0 3 0 a1.5 1.5 0 1 0 -3 0zM952.5 486 a1.5 1.5 0 1 0 3 0 a1.5 1.5 0 1 0 -3 0zM868.5 462 a1.5 1.5 0 1 0 3 0 a1.5 1.5 0 1 0 -3 0zM904.5 486 a1.5 1.5 0 1 0 3 0 a1.5 1.5 0 1 0 -3 0zM796.5 462 a1.5 1.5 0 1 0 3 0 a1.5 1.5 0 1 0 -3 0zM1264.5 450 a1.5 1.5 0 1 0 3 0 a1.5 1.5 0 1 0 -3 0zM1312.5 450 a1.5 1.5 0 1 0 3 0 a1.5 1.5 0 1 0 -3 0zM1348.5 450 a1.5 1.5 0 1 0 3 0 a1.5 1.5 0 1 0 -3 0zM928.5 486 a1.5 1.5 0 1 0 3 0 a1.5 1.5 0 1 0 -3 0zM1240.5 474 a1.5 1.5 0 1 0 3 0 a1.5 1.5 0 1 0 -3 0zM856.5 486 a1.5 1.5 0 1 0 3 0 a1.5 1.5 0 1 0 -3 0zM1168.5 486 a1.5 1.5 0 1 0 3 0 a1.5 1.5 0 1 0 -3 0zM676.5 486 a1.5 1.5 0 1 0 3 0 a1.5 1.5 0 1 0 -3 0zM880.5 486 a1.5 1.5 0 1 0 3 0 a1.5 1.5 0 1 0 -3 0z" fill="black"></path>
            <path d="M1240.5 366 a1.5 1.5 0 1 0 3 0 a1.5 1.5 0 1 0 -3 0zM1300.5 354 a1.5 1.5 0 1 0 3 0 a1.5 1.5 0 1 0 -3 0zM1324.5 378 a1.5 1.5 0 1 0 3 0 a1.5 1.5 0 1 0 -3 0zM1384.5 366 a1.5 1.5 0 1 0 3 0 a1.5 1.5 0 1 0 -3 0zM1216.5 378 a1.5 1.5 0 1 0 3 0 a1.5 1.5 0 1 0 -3 0z" fill="black"></path>
            <path d="M1096.5 330 a1.5 1.5 0 1 0 3 0 a1.5 1.5 0 1 0 -3 0zM1156.5 330 a1.5 1.5 0 1 0 3 0 a1.5 1.5 0 1 0 -3 0zM1180.5 354 a1.5 1.5 0 1 0 3 0 a1.5 1.5 0 1 0 -3 0zM1192.5 318 a1.5 1.5 0 1 0 3 0 a1.5 1.5 0 1 0 -3 0zM1264.5 354 a1.5 1.5 0 1 0 3 0 a1.5 1.5 0 1 0 -3 0zM1132.5 354 a1.5 1.5 0 1 0 3 0 a1.5 1.5 0 1 0 -3 0zM1348.5 354 a1.5 1.5 0 1 0 3 0 a1.5 1.5 0 1 0 -3 0zM1216.5 366 a1.5 1.5 0 1 0 3 0 a1.5 1.5 0 1 0 -3 0z" fill="black"></path>
            <path d="M1192.5 486 a1.5 1.5 0 1 0 3 0 a1.5 1.5 0 1 0 -3 0zM1432.5 426 a1.5 1.5 0 1 0 3 0 a1.5 1.5 0 1 0 -3 0zM1360.5 450 a1.5 1.5 0 1 0 3 0 a1.5 1.5 0 1 0 -3 0zM1384.5 438 a1.5 1.5 0 1 0 3 0 a1.5 1.5 0 1 0 -3 0zM1156.5 498 a1.5 1.5 0 1 0 3 0 a1.5 1.5 0 1 0 -3 0zM1216.5 498 a1.5 1.5 0 1 0 3 0 a1.5 1.5 0 1 0 -3 0z" fill="black"></path>
            <path d="M1108.5 294 a1.5 1.5 0 1 0 3 0 a1.5 1.5 0 1 0 -3 0zM1204.5 318 a1.5 1.5 0 1 0 3 0 a1.5 1.5 0 1 0 -3 0zM1204.5 294 a1.5 1.5 0 1 0 3 0 a1.5 1.5 0 1 0 -3 0zM1132.5 282 a1.5 1.5 0 1 0 3 0 a1.5 1.5 0 1 0 -3 0zM1288.5 306 a1.5 1.5 0 1 0 3 0 a1.5 1.5 0 1 0 -3 0zM1216.5 282 a1.5 1.5 0 1 0 3 0 a1.5 1.5 0 1 0 -3 0zM1060.5 318 a1.5 1.5 0 1 0 3 0 a1.5 1.5 0 1 0 -3 0zM1168.5 282 a1.5 1.5 0 1 0 3 0 a1.5 1.5 0 1 0 -3 0z" fill="black"></path>
            <path d="M712.5 486 a1.5 1.5 0 1 0 3 0 a1.5 1.5 0 1 0 -3 0zM940.5 510 a1.5 1.5 0 1 0 3 0 a1.5 1.5 0 1 0 -3 0zM844.5 510 a1.5 1.5 0 1 0 3 0 a1.5 1.5 0 1 0 -3 0zM940.5 534 a1.5 1.5 0 1 0 3 0 a1.5 1.5 0 1 0 -3 0zM1228.5 498 a1.5 1.5 0 1 0 3 0 a1.5 1.5 0 1 0 -3 0zM868.5 522 a1.5 1.5 0 1 0 3 0 a1.5 1.5 0 1 0 -3 0zM1300.5 486 a1.5 1.5 0 1 0 3 0 a1.5 1.5 0 1 0 -3 0zM868.5 510 a1.5 1.5 0 1 0 3 0 a1.5 1.5 0 1 0 -3 0zM760.5 510 a1.5 1.5 0 1 0 3 0 a1.5 1.5 0 1 0 -3 0zM880.5 498 a1.5 1.5 0 1 0 3 0 a1.5 1.5 0 1 0 -3 0zM1000.5 498 a1.5 1.5 0 1 0 3 0 a1.5 1.5 0 1 0 -3 0zM1084.5 522 a1.5 1.5 0 1 0 3 0 a1.5 1.5 0 1 0 -3 0zM640.5 498 a1.5 1.5 0 1 0 3 0 a1.5 1.5 0 1 0 -3 0zM1024.5 498 a1.5 1.5 0 1 0 3 0 a1.5 1.5 0 1 0 -3 0zM1048.5 510 a1.5 1.5 0 1 0 3 0 a1.5 1.5 0 1 0 -3 0zM1072.5 498 a1.5 1.5 0 1 0 3 0 a1.5 1.5 0 1 0 -3 0z" fill="black"></path>
            <path d="M1324.5 318 a1.5 1.5 0 1 0 3 0 a1.5 1.5 0 1 0 -3 0zM1288.5 294 a1.5 1.5 0 1 0 3 0 a1.5 1.5 0 1 0 -3 0z" fill="black"></path>
            <path d="M1288.5 486 a1.5 1.5 0 1 0 3 0 a1.5 1.5 0 1 0 -3 0zM1408.5 462 a1.5 1.5 0 1 0 3 0 a1.5 1.5 0 1 0 -3 0zM1420.5 462 a1.5 1.5 0 1 0 3 0 a1.5 1.5 0 1 0 -3 0zM1432.5 462 a1.5 1.5 0 1 0 3 0 a1.5 1.5 0 1 0 -3 0z" fill="black"></path>
            <path d="M1336.5 294 a1.5 1.5 0 1 0 3 0 a1.5 1.5 0 1 0 -3 0zM1360.5 294 a1.5 1.5 0 1 0 3 0 a1.5 1.5 0 1 0 -3 0zM1372.5 294 a1.5 1.5 0 1 0 3 0 a1.5 1.5 0 1 0 -3 0zM1336.5 306 a1.5 1.5 0 1 0 3 0 a1.5 1.5 0 1 0 -3 0z" fill="black"></path>
            <path d="M1360.5 498 a1.5 1.5 0 1 0 3 0 a1.5 1.5 0 1 0 -3 0zM1384.5 486 a1.5 1.5 0 1 0 3 0 a1.5 1.5 0 1 0 -3 0zM1396.5 486 a1.5 1.5 0 1 0 3 0 a1.5 1.5 0 1 0 -3 0zM1408.5 486 a1.5 1.5 0 1 0 3 0 a1.5 1.5 0 1 0 -3 0z" fill="black"></path>
            <path d="M1276.5 282 a1.5 1.5 0 1 0 3 0 a1.5 1.5 0 1 0 -3 0zM1396.5 306 a1.5 1.5 0 1 0 3 0 a1.5 1.5 0 1 0 -3 0zM1312.5 294 a1.5 1.5 0 1 0 3 0 a1.5 1.5 0 1 0 -3 0zM1384.5 294 a1.5 1.5 0 1 0 3 0 a1.5 1.5 0 1 0 -3 0zM1408.5 306 a1.5 1.5 0 1 0 3 0 a1.5 1.5 0 1 0 -3 0z" fill="black"></path>
            <path d="M940.5 546 a1.5 1.5 0 1 0 3 0 a1.5 1.5 0 1 0 -3 0zM1228.5 534 a1.5 1.5 0 1 0 3 0 a1.5 1.5 0 1 0 -3 0zM1012.5 546 a1.5 1.5 0 1 0 3 0 a1.5 1.5 0 1 0 -3 0zM1096.5 522 a1.5 1.5 0 1 0 3 0 a1.5 1.5 0 1 0 -3 0zM892.5 558 a1.5 1.5 0 1 0 3 0 a1.5 1.5 0 1 0 -3 0zM1132.5 522 a1.5 1.5 0 1 0 3 0 a1.5 1.5 0 1 0 -3 0zM1168.5 522 a1.5 1.5 0 1 0 3 0 a1.5 1.5 0 1 0 -3 0zM1204.5 534 a1.5 1.5 0 1 0 3 0 a1.5 1.5 0 1 0 -3 0zM1084.5 546 a1.5 1.5 0 1 0 3 0 a1.5 1.5 0 1 0 -3 0zM976.5 558 a1.5 1.5 0 1 0 3 0 a1.5 1.5 0 1 0 -3 0zM1276.5 498 a1.5 1.5 0 1 0 3 0 a1.5 1.5 0 1 0 -3 0zM1192.5 522 a1.5 1.5 0 1 0 3 0 a1.5 1.5 0 1 0 -3 0z" fill="black"></path>
            <path d="M1060.5 270 a1.5 1.5 0 1 0 3 0 a1.5 1.5 0 1 0 -3 0zM1072.5 246 a1.5 1.5 0 1 0 3 0 a1.5 1.5 0 1 0 -3 0zM1048.5 234 a1.5 1.5 0 1 0 3 0 a1.5 1.5 0 1 0 -3 0zM1036.5 282 a1.5 1.5 0 1 0 3 0 a1.5 1.5 0 1 0 -3 0zM1240.5 246 a1.5 1.5 0 1 0 3 0 a1.5 1.5 0 1 0 -3 0zM1180.5 282 a1.5 1.5 0 1 0 3 0 a1.5 1.5 0 1 0 -3 0zM1156.5 258 a1.5 1.5 0 1 0 3 0 a1.5 1.5 0 1 0 -3 0zM1168.5 258 a1.5 1.5 0 1 0 3 0 a1.5 1.5 0 1 0 -3 0zM976.5 258 a1.5 1.5 0 1 0 3 0 a1.5 1.5 0 1 0 -3 0z" fill="black"></path>
            <path d="M1144.5 546 a1.5 1.5 0 1 0 3 0 a1.5 1.5 0 1 0 -3 0zM1276.5 534 a1.5 1.5 0 1 0 3 0 a1.5 1.5 0 1 0 -3 0zM1288.5 534 a1.5 1.5 0 1 0 3 0 a1.5 1.5 0 1 0 -3 0zM1360.5 522 a1.5 1.5 0 1 0 3 0 a1.5 1.5 0 1 0 -3 0zM1300.5 534 a1.5 1.5 0 1 0 3 0 a1.5 1.5 0 1 0 -3 0zM1240.5 534 a1.5 1.5 0 1 0 3 0 a1.5 1.5 0 1 0 -3 0zM1396.5 522 a1.5 1.5 0 1 0 3 0 a1.5 1.5 0 1 0 -3 0z" fill="black"></path>
            <path d="M1156.5 246 a1.5 1.5 0 1 0 3 0 a1.5 1.5 0 1 0 -3 0zM1168.5 234 a1.5 1.5 0 1 0 3 0 a1.5 1.5 0 1 0 -3 0zM1216.5 222 a1.5 1.5 0 1 0 3 0 a1.5 1.5 0 1 0 -3 0zM1288.5 246 a1.5 1.5 0 1 0 3 0 a1.5 1.5 0 1 0 -3 0zM1300.5 258 a1.5 1.5 0 1 0 3 0 a1.5 1.5 0 1 0 -3 0zM1228.5 234 a1.5 1.5 0 1 0 3 0 a1.5 1.5 0 1 0 -3 0zM1264.5 246 a1.5 1.5 0 1 0 3 0 a1.5 1.5 0 1 0 -3 0z" fill="black"></path>
            <path d="M988.5 570 a1.5 1.5 0 1 0 3 0 a1.5 1.5 0 1 0 -3 0zM1048.5 558 a1.5 1.5 0 1 0 3 0 a1.5 1.5 0 1 0 -3 0zM988.5 558 a1.5 1.5 0 1 0 3 0 a1.5 1.5 0 1 0 -3 0zM1120.5 546 a1.5 1.5 0 1 0 3 0 a1.5 1.5 0 1 0 -3 0zM1072.5 558 a1.5 1.5 0 1 0 3 0 a1.5 1.5 0 1 0 -3 0zM1036.5 546 a1.5 1.5 0 1 0 3 0 a1.5 1.5 0 1 0 -3 0z" fill="black"></path>
            <path d="M1264.5 222 a1.5 1.5 0 1 0 3 0 a1.5 1.5 0 1 0 -3 0z" fill="black"></path>
            <path d="M856.5 582 a1.5 1.5 0 1 0 3 0 a1.5 1.5 0 1 0 -3 0zM1096.5 582 a1.5 1.5 0 1 0 3 0 a1.5 1.5 0 1 0 -3 0zM928.5 594 a1.5 1.5 0 1 0 3 0 a1.5 1.5 0 1 0 -3 0zM1108.5 594 a1.5 1.5 0 1 0 3 0 a1.5 1.5 0 1 0 -3 0zM964.5 594 a1.5 1.5 0 1 0 3 0 a1.5 1.5 0 1 0 -3 0zM916.5 570 a1.5 1.5 0 1 0 3 0 a1.5 1.5 0 1 0 -3 0zM1252.5 582 a1.5 1.5 0 1 0 3 0 a1.5 1.5 0 1 0 -3 0zM1132.5 606 a1.5 1.5 0 1 0 3 0 a1.5 1.5 0 1 0 -3 0zM976.5 606 a1.5 1.5 0 1 0 3 0 a1.5 1.5 0 1 0 -3 0zM1000.5 606 a1.5 1.5 0 1 0 3 0 a1.5 1.5 0 1 0 -3 0zM1228.5 582 a1.5 1.5 0 1 0 3 0 a1.5 1.5 0 1 0 -3 0zM808.5 570 a1.5 1.5 0 1 0 3 0 a1.5 1.5 0 1 0 -3 0zM904.5 594 a1.5 1.5 0 1 0 3 0 a1.5 1.5 0 1 0 -3 0z" fill="black"></path>
            <path d="M880.5 186 a1.5 1.5 0 1 0 3 0 a1.5 1.5 0 1 0 -3 0zM976.5 210 a1.5 1.5 0 1 0 3 0 a1.5 1.5 0 1 0 -3 0zM916.5 222 a1.5 1.5 0 1 0 3 0 a1.5 1.5 0 1 0 -3 0zM964.5 186 a1.5 1.5 0 1 0 3 0 a1.5 1.5 0 1 0 -3 0zM928.5 234 a1.5 1.5 0 1 0 3 0 a1.5 1.5 0 1 0 -3 0zM1108.5 198 a1.5 1.5 0 1 0 3 0 a1.5 1.5 0 1 0 -3 0zM1144.5 186 a1.5 1.5 0 1 0 3 0 a1.5 1.5 0 1 0 -3 0zM1144.5 222 a1.5 1.5 0 1 0 3 0 a1.5 1.5 0 1 0 -3 0zM976.5 186 a1.5 1.5 0 1 0 3 0 a1.5 1.5 0 1 0 -3 0zM1000.5 186 a1.5 1.5 0 1 0 3 0 a1.5 1.5 0 1 0 -3 0zM1012.5 186 a1.5 1.5 0 1 0 3 0 a1.5 1.5 0 1 0 -3 0zM844.5 174 a1.5 1.5 0 1 0 3 0 a1.5 1.5 0 1 0 -3 0zM832.5 210 a1.5 1.5 0 1 0 3 0 a1.5 1.5 0 1 0 -3 0z" fill="black"></path>
            <path d="M1228.5 594 a1.5 1.5 0 1 0 3 0 a1.5 1.5 0 1 0 -3 0zM1240.5 606 a1.5 1.5 0 1 0 3 0 a1.5 1.5 0 1 0 -3 0zM1276.5 582 a1.5 1.5 0 1 0 3 0 a1.5 1.5 0 1 0 -3 0zM1228.5 618 a1.5 1.5 0 1 0 3 0 a1.5 1.5 0 1 0 -3 0zM1288.5 582 a1.5 1.5 0 1 0 3 0 a1.5 1.5 0 1 0 -3 0z" fill="black"></path>
            <path d="M736.5 162 a1.5 1.5 0 1 0 3 0 a1.5 1.5 0 1 0 -3 0zM688.5 126 a1.5 1.5 0 1 0 3 0 a1.5 1.5 0 1 0 -3 0zM880.5 138 a1.5 1.5 0 1 0 3 0 a1.5 1.5 0 1 0 -3 0zM928.5 174 a1.5 1.5 0 1 0 3 0 a1.5 1.5 0 1 0 -3 0zM1072.5 162 a1.5 1.5 0 1 0 3 0 a1.5 1.5 0 1 0 -3 0zM760.5 174 a1.5 1.5 0 1 0 3 0 a1.5 1.5 0 1 0 -3 0zM1084.5 162 a1.5 1.5 0 1 0 3 0 a1.5 1.5 0 1 0 -3 0zM724.5 198 a1.5 1.5 0 1 0 3 0 a1.5 1.5 0 1 0 -3 0zM640.5 150 a1.5 1.5 0 1 0 3 0 a1.5 1.5 0 1 0 -3 0zM1336.5 210 a1.5 1.5 0 1 0 3 0 a1.5 1.5 0 1 0 -3 0zM640.5 174 a1.5 1.5 0 1 0 3 0 a1.5 1.5 0 1 0 -3 0z" fill="black"></path>
            <path d="M1324.5 582 a1.5 1.5 0 1 0 3 0 a1.5 1.5 0 1 0 -3 0z" fill="black"></path>
            <path d="M748.5 126 a1.5 1.5 0 1 0 3 0 a1.5 1.5 0 1 0 -3 0zM940.5 150 a1.5 1.5 0 1 0 3 0 a1.5 1.5 0 1 0 -3 0zM700.5 114 a1.5 1.5 0 1 0 3 0 a1.5 1.5 0 1 0 -3 0zM904.5 138 a1.5 1.5 0 1 0 3 0 a1.5 1.5 0 1 0 -3 0zM1120.5 162 a1.5 1.5 0 1 0 3 0 a1.5 1.5 0 1 0 -3 0zM820.5 114 a1.5 1.5 0 1 0 3 0 a1.5 1.5 0 1 0 -3 0zM784.5 138 a1.5 1.5 0 1 0 3 0 a1.5 1.5 0 1 0 -3 0zM916.5 138 a1.5 1.5 0 1 0 3 0 a1.5 1.5 0 1 0 -3 0zM832.5 138 a1.5 1.5 0 1 0 3 0 a1.5 1.5 0 1 0 -3 0zM976.5 150 a1.5 1.5 0 1 0 3 0 a1.5 1.5 0 1 0 -3 0zM1132.5 150 a1.5 1.5 0 1 0 3 0 a1.5 1.5 0 1 0 -3 0zM1360.5 210 a1.5 1.5 0 1 0 3 0 a1.5 1.5 0 1 0 -3 0zM940.5 126 a1.5 1.5 0 1 0 3 0 a1.5 1.5 0 1 0 -3 0z" fill="black"></path>
            <path d="M1288.5 606 a1.5 1.5 0 1 0 3 0 a1.5 1.5 0 1 0 -3 0z" fill="black"></path>
            <path d="M784.5 102 a1.5 1.5 0 1 0 3 0 a1.5 1.5 0 1 0 -3 0zM1324.5 174 a1.5 1.5 0 1 0 3 0 a1.5 1.5 0 1 0 -3 0zM760.5 78 a1.5 1.5 0 1 0 3 0 a1.5 1.5 0 1 0 -3 0zM808.5 90 a1.5 1.5 0 1 0 3 0 a1.5 1.5 0 1 0 -3 0zM952.5 126 a1.5 1.5 0 1 0 3 0 a1.5 1.5 0 1 0 -3 0zM1300.5 174 a1.5 1.5 0 1 0 3 0 a1.5 1.5 0 1 0 -3 0zM820.5 90 a1.5 1.5 0 1 0 3 0 a1.5 1.5 0 1 0 -3 0zM1144.5 150 a1.5 1.5 0 1 0 3 0 a1.5 1.5 0 1 0 -3 0z" fill="black"></path>
            <path d="M1276.5 618 a1.5 1.5 0 1 0 3 0 a1.5 1.5 0 1 0 -3 0zM1324.5 618 a1.5 1.5 0 1 0 3 0 a1.5 1.5 0 1 0 -3 0zM1276.5 630 a1.5 1.5 0 1 0 3 0 a1.5 1.5 0 1 0 -3 0zM1288.5 630 a1.5 1.5 0 1 0 3 0 a1.5 1.5 0 1 0 -3 0z" fill="black"></path>
            <path d="M808.5 78 a1.5 1.5 0 1 0 3 0 a1.5 1.5 0 1 0 -3 0zM1036.5 114 a1.5 1.5 0 1 0 3 0 a1.5 1.5 0 1 0 -3 0zM1216.5 150 a1.5 1.5 0 1 0 3 0 a1.5 1.5 0 1 0 -3 0zM1288.5 150 a1.5 1.5 0 1 0 3 0 a1.5 1.5 0 1 0 -3 0zM964.5 102 a1.5 1.5 0 1 0 3 0 a1.5 1.5 0 1 0 -3 0zM1372.5 186 a1.5 1.5 0 1 0 3 0 a1.5 1.5 0 1 0 -3 0zM1312.5 150 a1.5 1.5 0 1 0 3 0 a1.5 1.5 0 1 0 -3 0zM1336.5 174 a1.5 1.5 0 1 0 3 0 a1.5 1.5 0 1 0 -3 0zM832.5 90 a1.5 1.5 0 1 0 3 0 a1.5 1.5 0 1 0 -3 0z" fill="black"></path>
            <path d="M784.5 618 a1.5 1.5 0 1 0 3 0 a1.5 1.5 0 1 0 -3 0zM736.5 594 a1.5 1.5 0 1 0 3 0 a1.5 1.5 0 1 0 -3 0zM760.5 630 a1.5 1.5 0 1 0 3 0 a1.5 1.5 0 1 0 -3 0zM880.5 618 a1.5 1.5 0 1 0 3 0 a1.5 1.5 0 1 0 -3 0zM1228.5 666 a1.5 1.5 0 1 0 3 0 a1.5 1.5 0 1 0 -3 0zM1168.5 642 a1.5 1.5 0 1 0 3 0 a1.5 1.5 0 1 0 -3 0zM1300.5 630 a1.5 1.5 0 1 0 3 0 a1.5 1.5 0 1 0 -3 0zM1144.5 654 a1.5 1.5 0 1 0 3 0 a1.5 1.5 0 1 0 -3 0zM1012.5 678 a1.5 1.5 0 1 0 3 0 a1.5 1.5 0 1 0 -3 0zM1108.5 630 a1.5 1.5 0 1 0 3 0 a1.5 1.5 0 1 0 -3 0zM1036.5 618 a1.5 1.5 0 1 0 3 0 a1.5 1.5 0 1 0 -3 0zM1336.5 630 a1.5 1.5 0 1 0 3 0 a1.5 1.5 0 1 0 -3 0zM1348.5 642 a1.5 1.5 0 1 0 3 0 a1.5 1.5 0 1 0 -3 0zM1084.5 654 a1.5 1.5 0 1 0 3 0 a1.5 1.5 0 1 0 -3 0zM916.5 618 a1.5 1.5 0 1 0 3 0 a1.5 1.5 0 1 0 -3 0z" fill="black"></path>
            <path d="M760.5 66 a1.5 1.5 0 1 0 3 0 a1.5 1.5 0 1 0 -3 0zM712.5 66 a1.5 1.5 0 1 0 3 0 a1.5 1.5 0 1 0 -3 0zM1180.5 114 a1.5 1.5 0 1 0 3 0 a1.5 1.5 0 1 0 -3 0zM1036.5 90 a1.5 1.5 0 1 0 3 0 a1.5 1.5 0 1 0 -3 0zM952.5 78 a1.5 1.5 0 1 0 3 0 a1.5 1.5 0 1 0 -3 0zM1024.5 78 a1.5 1.5 0 1 0 3 0 a1.5 1.5 0 1 0 -3 0zM1312.5 126 a1.5 1.5 0 1 0 3 0 a1.5 1.5 0 1 0 -3 0zM832.5 54 a1.5 1.5 0 1 0 3 0 a1.5 1.5 0 1 0 -3 0zM856.5 78 a1.5 1.5 0 1 0 3 0 a1.5 1.5 0 1 0 -3 0zM904.5 78 a1.5 1.5 0 1 0 3 0 a1.5 1.5 0 1 0 -3 0zM1288.5 126 a1.5 1.5 0 1 0 3 0 a1.5 1.5 0 1 0 -3 0zM1396.5 186 a1.5 1.5 0 1 0 3 0 a1.5 1.5 0 1 0 -3 0zM1432.5 186 a1.5 1.5 0 1 0 3 0 a1.5 1.5 0 1 0 -3 0zM1252.5 114 a1.5 1.5 0 1 0 3 0 a1.5 1.5 0 1 0 -3 0zM700.5 30 a1.5 1.5 0 1 0 3 0 a1.5 1.5 0 1 0 -3 0z" fill="black"></path>
        </mask>
    </defs>
</svg>