<svg xmlns="http://www.w3.org/2000/svg" version="1.1" xmlns:xlink="http://www.w3.org/1999/xlink" xmlns:svgjs="http://svgjs.dev/svgjs" width="180" height="400" preserveAspectRatio="none" viewBox="0 0 180 400"><g mask="url(&quot;#SvgjsMask1105&quot;)" fill="none"><g mask="url(&quot;#SvgjsMask1106&quot;)"><path d="M88 424L88 408L88 392" stroke="rgba(102, 72, 133, 1)" stroke-width="2.67"></path><path d="M84 392 a4 4 0 1 0 8 0 a4 4 0 1 0 -8 0z" fill="rgba(102, 72, 133, 1)"></path><path d="M104 360L120 344L120 328L120 312L120 296M88 184L104 168L104 152L104 136L104 120M104 264L88 248L88 232L88 216L88 200M104 312L88 296L88 280M88 120L88 104M104 392L120 376L120 360L136 344L136 328L136 312L136 296M104 424L104 408L104 392L104 376L104 360L104 344L104 328L104 312L104 296L104 280L104 264L104 248L104 232L104 216L104 200L88 184L88 168L88 152L88 136L88 120L72 104L72 88L72 72L72 56L72 40" stroke="rgba(102, 72, 133, 1)" stroke-width="2.67"></path><path d="M68 40 a4 4 0 1 0 8 0 a4 4 0 1 0 -8 0zM116 296 a4 4 0 1 0 8 0 a4 4 0 1 0 -8 0zM100 120 a4 4 0 1 0 8 0 a4 4 0 1 0 -8 0zM84 200 a4 4 0 1 0 8 0 a4 4 0 1 0 -8 0zM84 280 a4 4 0 1 0 8 0 a4 4 0 1 0 -8 0zM84 104 a4 4 0 1 0 8 0 a4 4 0 1 0 -8 0zM132 296 a4 4 0 1 0 8 0 a4 4 0 1 0 -8 0z" fill="rgba(102, 72, 133, 1)"></path><path d="M72 360L88 344L88 328M72 232L56 216M72 264L56 248M72 200L56 184L56 168L56 152L56 136M72 424L72 408L72 392L72 376L72 360L72 344L72 328L72 312L72 296L72 280L72 264L72 248L72 232L72 216L72 200L72 184" stroke="rgba(23, 159, 218, 1)" stroke-width="2.67"></path><path d="M68 184 a4 4 0 1 0 8 0 a4 4 0 1 0 -8 0zM84 328 a4 4 0 1 0 8 0 a4 4 0 1 0 -8 0zM52 216 a4 4 0 1 0 8 0 a4 4 0 1 0 -8 0zM52 248 a4 4 0 1 0 8 0 a4 4 0 1 0 -8 0zM52 136 a4 4 0 1 0 8 0 a4 4 0 1 0 -8 0z" fill="rgba(23, 159, 218, 1)"></path><path d="M120 424L120 408" stroke="rgba(102, 72, 133, 1)" stroke-width="2.67"></path><path d="M116 408 a4 4 0 1 0 8 0 a4 4 0 1 0 -8 0z" fill="rgba(102, 72, 133, 1)"></path><path d="M56 376L40 360M56 312L40 296L40 280L40 264M56 408L40 392L40 376M56 424L56 408L56 392L56 376L56 360L56 344L56 328L56 312L56 296" stroke="rgba(23, 159, 218, 1)" stroke-width="2.67"></path><path d="M52 296 a4 4 0 1 0 8 0 a4 4 0 1 0 -8 0zM36 360 a4 4 0 1 0 8 0 a4 4 0 1 0 -8 0zM36 264 a4 4 0 1 0 8 0 a4 4 0 1 0 -8 0zM36 376 a4 4 0 1 0 8 0 a4 4 0 1 0 -8 0z" fill="rgba(23, 159, 218, 1)"></path></g></g><defs><mask id="SvgjsMask1105"><rect width="180" height="400" fill="#ffffff"></rect></mask><mask id="SvgjsMask1106"><rect width="180" height="400" fill="white"></rect><path d="M86 392 a2 2 0 1 0 4 0 a2 2 0 1 0 -4 0z" fill="black"></path><path d="M70 40 a2 2 0 1 0 4 0 a2 2 0 1 0 -4 0zM118 296 a2 2 0 1 0 4 0 a2 2 0 1 0 -4 0zM102 120 a2 2 0 1 0 4 0 a2 2 0 1 0 -4 0zM86 200 a2 2 0 1 0 4 0 a2 2 0 1 0 -4 0zM86 280 a2 2 0 1 0 4 0 a2 2 0 1 0 -4 0zM86 104 a2 2 0 1 0 4 0 a2 2 0 1 0 -4 0zM134 296 a2 2 0 1 0 4 0 a2 2 0 1 0 -4 0z" fill="black"></path><path d="M70 184 a2 2 0 1 0 4 0 a2 2 0 1 0 -4 0zM86 328 a2 2 0 1 0 4 0 a2 2 0 1 0 -4 0zM54 216 a2 2 0 1 0 4 0 a2 2 0 1 0 -4 0zM54 248 a2 2 0 1 0 4 0 a2 2 0 1 0 -4 0zM54 136 a2 2 0 1 0 4 0 a2 2 0 1 0 -4 0z" fill="black"></path><path d="M118 408 a2 2 0 1 0 4 0 a2 2 0 1 0 -4 0z" fill="black"></path><path d="M54 296 a2 2 0 1 0 4 0 a2 2 0 1 0 -4 0zM38 360 a2 2 0 1 0 4 0 a2 2 0 1 0 -4 0zM38 264 a2 2 0 1 0 4 0 a2 2 0 1 0 -4 0zM38 376 a2 2 0 1 0 4 0 a2 2 0 1 0 -4 0z" fill="black"></path></mask></defs></svg>