<svg xmlns="http://www.w3.org/2000/svg" version="1.1" xmlns:xlink="http://www.w3.org/1999/xlink" xmlns:svgjs="http://svgjs.dev/svgjs"   viewBox="0 0 300 780">
    <g mask="url(&quot;#SvgjsMask2274&quot;)" fill="none">
        <g mask="url(&quot;#SvgjsMask2276&quot;)">
            <path d="M150 582L162 570L162 558L162 546L162 534L162 522M150 618L162 606L162 594M162 654L150 642L150 630M150 690L150 678L150 666M162 630L162 618M150 798L150 786L150 774L150 762L150 750L150 738L150 726L150 714L150 702L150 690L162 678L162 666L162 654L162 642L162 630L150 618L150 606L150 594L150 582L150 570L150 558L150 546L150 534L150 522L150 510" stroke="url(&quot;#SvgjsLinearGradient2275&quot;)" stroke-width="2"></path>
            <path d="M147 510 a3 3 0 1 0 6 0 a3 3 0 1 0 -6 0zM159 522 a3 3 0 1 0 6 0 a3 3 0 1 0 -6 0zM159 594 a3 3 0 1 0 6 0 a3 3 0 1 0 -6 0zM147 630 a3 3 0 1 0 6 0 a3 3 0 1 0 -6 0zM147 666 a3 3 0 1 0 6 0 a3 3 0 1 0 -6 0zM159 618 a3 3 0 1 0 6 0 a3 3 0 1 0 -6 0z" fill="url(&quot;#SvgjsLinearGradient2275&quot;)"></path>
            <path d="M162 750L174 738L174 726M162 714L174 702L174 690M162 798L162 786L162 774L162 762L162 750L162 738L162 726L162 714L162 702L162 690L174 678L174 666L174 654L174 642L174 630L174 618L174 606L174 594L174 582" stroke="url(&quot;#SvgjsLinearGradient2275&quot;)" stroke-width="2"></path>
            <path d="M171 582 a3 3 0 1 0 6 0 a3 3 0 1 0 -6 0zM171 726 a3 3 0 1 0 6 0 a3 3 0 1 0 -6 0zM171 690 a3 3 0 1 0 6 0 a3 3 0 1 0 -6 0z" fill="url(&quot;#SvgjsLinearGradient2275&quot;)"></path>
            <path d="M138 498L150 486M162 402L150 390L150 378L150 366L150 354M138 606L126 594M174 306L174 294L174 282L174 270L174 258L174 246L174 234L174 222L174 210L174 198M174 342L162 330L162 318L162 306L150 294M138 642L126 630L126 618M138 510L126 498L126 486L126 474L126 462L126 450M174 318L186 306L198 294L210 282L210 270L210 258L210 246L210 234M138 546L126 534L126 522L126 510M186 282L198 270L198 258L198 246L198 234L198 222L198 210L198 198L198 186L198 174L198 162L198 150L198 138L198 126L198 114L198 102L198 90L198 78M150 450L150 438L150 426L150 414L150 402L138 390L138 378L138 366L138 354L126 342L126 330M150 462L138 450L138 438L138 426L138 414M174 366L186 354L186 342L186 330L186 318L198 306L210 294L222 282L222 270L222 258L222 246L222 234M162 438L174 426L174 414L174 402L186 390L186 378L186 366L198 354L198 342L198 330M138 798L138 786L138 774L138 762L138 750L138 738L138 726L138 714L138 702L138 690L138 678L138 666L138 654L138 642L138 630L138 618L138 606L138 594L138 582L138 570L138 558L138 546L138 534L138 522L138 510L138 498L138 486L150 474L150 462L150 450L162 438L162 426L162 414L162 402L162 390L162 378L174 366L174 354L174 342L174 330L174 318L174 306L186 294L186 282L186 270L186 258L186 246L186 234L186 222L186 210L186 198L186 186L186 174L186 162L186 150L186 138L186 126" stroke="url(&quot;#SvgjsLinearGradient2275&quot;)" stroke-width="2"></path>
            <path d="M183 126 a3 3 0 1 0 6 0 a3 3 0 1 0 -6 0zM147 486 a3 3 0 1 0 6 0 a3 3 0 1 0 -6 0zM147 354 a3 3 0 1 0 6 0 a3 3 0 1 0 -6 0zM123 594 a3 3 0 1 0 6 0 a3 3 0 1 0 -6 0zM171 198 a3 3 0 1 0 6 0 a3 3 0 1 0 -6 0zM147 294 a3 3 0 1 0 6 0 a3 3 0 1 0 -6 0zM123 618 a3 3 0 1 0 6 0 a3 3 0 1 0 -6 0zM123 450 a3 3 0 1 0 6 0 a3 3 0 1 0 -6 0zM207 234 a3 3 0 1 0 6 0 a3 3 0 1 0 -6 0zM123 510 a3 3 0 1 0 6 0 a3 3 0 1 0 -6 0zM195 78 a3 3 0 1 0 6 0 a3 3 0 1 0 -6 0zM123 330 a3 3 0 1 0 6 0 a3 3 0 1 0 -6 0zM135 414 a3 3 0 1 0 6 0 a3 3 0 1 0 -6 0zM219 234 a3 3 0 1 0 6 0 a3 3 0 1 0 -6 0zM195 330 a3 3 0 1 0 6 0 a3 3 0 1 0 -6 0z" fill="url(&quot;#SvgjsLinearGradient2275&quot;)"></path>
            <path d="M174 762L174 750M186 702L198 690L198 678L198 666L198 654M198 450L210 438L210 426L210 414L210 402L210 390L210 378L210 366L210 354L222 342L222 330M198 522L186 510L174 498L174 486L174 474L174 462L174 450M186 726L198 714L198 702M186 570L186 558L186 546L186 534M186 606L198 594L198 582L198 570L210 558L210 546L210 534L210 522L210 510L210 498L210 486L210 474L210 462M198 498L186 486L186 474L186 462L186 450M186 630L198 618L198 606L210 594L210 582L210 570M174 798L174 786L174 774L174 762L186 750L186 738L186 726L186 714L186 702L186 690L186 678L186 666L186 654L186 642L186 630L186 618L186 606L186 594L186 582L186 570L198 558L198 546L198 534L198 522L198 510L198 498L198 486L198 474L198 462L198 450L198 438L198 426L198 414L198 402L198 390L198 378" stroke="url(&quot;#SvgjsLinearGradient2275&quot;)" stroke-width="2"></path>
            <path d="M195 378 a3 3 0 1 0 6 0 a3 3 0 1 0 -6 0zM171 750 a3 3 0 1 0 6 0 a3 3 0 1 0 -6 0zM195 654 a3 3 0 1 0 6 0 a3 3 0 1 0 -6 0zM219 330 a3 3 0 1 0 6 0 a3 3 0 1 0 -6 0zM171 450 a3 3 0 1 0 6 0 a3 3 0 1 0 -6 0zM195 702 a3 3 0 1 0 6 0 a3 3 0 1 0 -6 0zM183 534 a3 3 0 1 0 6 0 a3 3 0 1 0 -6 0zM207 462 a3 3 0 1 0 6 0 a3 3 0 1 0 -6 0zM183 450 a3 3 0 1 0 6 0 a3 3 0 1 0 -6 0zM207 570 a3 3 0 1 0 6 0 a3 3 0 1 0 -6 0z" fill="url(&quot;#SvgjsLinearGradient2275&quot;)"></path>
            <path d="M126 798L126 786L126 774L126 762L126 750L126 738L126 726L126 714" stroke="url(&quot;#SvgjsLinearGradient2275&quot;)" stroke-width="2"></path>
            <path d="M123 714 a3 3 0 1 0 6 0 a3 3 0 1 0 -6 0z" fill="url(&quot;#SvgjsLinearGradient2275&quot;)"></path>
            <path d="M198 750L198 738L198 726M186 798L186 786L186 774L186 762L198 750L210 738L210 726L210 714L210 702L210 690L210 678" stroke="url(&quot;#SvgjsLinearGradient2275&quot;)" stroke-width="2"></path>
            <path d="M207 678 a3 3 0 1 0 6 0 a3 3 0 1 0 -6 0zM195 726 a3 3 0 1 0 6 0 a3 3 0 1 0 -6 0z" fill="url(&quot;#SvgjsLinearGradient2275&quot;)"></path>
            <path d="M90 642L102 630L102 618L102 606M90 522L102 510L102 498L102 486L102 474L102 462L102 450L102 438M102 558L114 546M90 318L78 306L78 294M90 354L78 342M78 462L90 450L90 438L102 426L102 414L102 402L102 390L114 378L114 366L114 354L114 342M90 294L102 282L114 270L114 258L114 246L114 234L114 222L114 210M78 486L90 474L90 462M90 306L102 294M90 282L78 270L78 258L78 246M78 390L66 378L66 366L66 354L54 342L54 330L54 318L54 306L54 294L54 282L66 270L66 258M114 798L114 786L114 774L114 762L114 750L114 738L114 726L102 714L102 702L102 690L90 678L90 666L90 654L90 642L90 630L90 618L90 606L90 594L90 582L90 570L102 558L102 546L90 534L90 522L90 510L78 498L78 486L78 474L78 462L78 450L78 438L78 426L78 414L78 402L78 390L78 378L90 366L90 354L90 342L90 330L90 318L90 306L90 294L90 282L90 270" stroke="url(&quot;#SvgjsLinearGradient2275&quot;)" stroke-width="2"></path>
            <path d="M87 270 a3 3 0 1 0 6 0 a3 3 0 1 0 -6 0zM99 606 a3 3 0 1 0 6 0 a3 3 0 1 0 -6 0zM99 438 a3 3 0 1 0 6 0 a3 3 0 1 0 -6 0zM111 546 a3 3 0 1 0 6 0 a3 3 0 1 0 -6 0zM75 294 a3 3 0 1 0 6 0 a3 3 0 1 0 -6 0zM75 342 a3 3 0 1 0 6 0 a3 3 0 1 0 -6 0zM111 342 a3 3 0 1 0 6 0 a3 3 0 1 0 -6 0zM111 210 a3 3 0 1 0 6 0 a3 3 0 1 0 -6 0zM87 462 a3 3 0 1 0 6 0 a3 3 0 1 0 -6 0zM99 294 a3 3 0 1 0 6 0 a3 3 0 1 0 -6 0zM75 246 a3 3 0 1 0 6 0 a3 3 0 1 0 -6 0zM63 258 a3 3 0 1 0 6 0 a3 3 0 1 0 -6 0z" fill="url(&quot;#SvgjsLinearGradient2275&quot;)"></path>
            <path d="M234 186L222 174M234 270L246 258L246 246L246 234L246 222M222 642L210 630L210 618L210 606M234 498L246 486L258 474L258 462L258 450M234 198L222 186L210 174L210 162L210 150L222 138L222 126L222 114L222 102L222 90L222 78L222 66L222 54L222 42L222 30M246 330L246 318L246 306L246 294M234 486L222 474L222 462L222 450L222 438L222 426L222 414M222 690L234 678L234 666L234 654L234 642M234 426L246 414L246 402L246 390M234 570L222 558L222 546L222 534L222 522M234 474L246 462L246 450L246 438L246 426M246 354L234 342M234 534L246 522L246 510L246 498L258 486M234 282L246 270M198 798L198 786L198 774L198 762L210 750L222 738L222 726L222 714L222 702L222 690L222 678L222 666L222 654L222 642L222 630L222 618L222 606L234 594L234 582L234 570L234 558L234 546L234 534L234 522L234 510L234 498L234 486L234 474L234 462L234 450L234 438L234 426L234 414L234 402L234 390L246 378L246 366L246 354L246 342L246 330L234 318L234 306L234 294L234 282L234 270L234 258L234 246L234 234L234 222L234 210L234 198L234 186L234 174L234 162L246 150L246 138L246 126L246 114L246 102" stroke="url(&quot;#SvgjsLinearGradient2275&quot;)" stroke-width="2"></path>
            <path d="M243 102 a3 3 0 1 0 6 0 a3 3 0 1 0 -6 0zM219 174 a3 3 0 1 0 6 0 a3 3 0 1 0 -6 0zM243 222 a3 3 0 1 0 6 0 a3 3 0 1 0 -6 0zM207 606 a3 3 0 1 0 6 0 a3 3 0 1 0 -6 0zM255 450 a3 3 0 1 0 6 0 a3 3 0 1 0 -6 0zM219 30 a3 3 0 1 0 6 0 a3 3 0 1 0 -6 0zM243 294 a3 3 0 1 0 6 0 a3 3 0 1 0 -6 0zM219 414 a3 3 0 1 0 6 0 a3 3 0 1 0 -6 0zM231 642 a3 3 0 1 0 6 0 a3 3 0 1 0 -6 0zM243 390 a3 3 0 1 0 6 0 a3 3 0 1 0 -6 0zM219 522 a3 3 0 1 0 6 0 a3 3 0 1 0 -6 0zM243 426 a3 3 0 1 0 6 0 a3 3 0 1 0 -6 0zM231 342 a3 3 0 1 0 6 0 a3 3 0 1 0 -6 0zM255 486 a3 3 0 1 0 6 0 a3 3 0 1 0 -6 0zM243 270 a3 3 0 1 0 6 0 a3 3 0 1 0 -6 0z" fill="url(&quot;#SvgjsLinearGradient2275&quot;)"></path>
            <path d="M42 186L54 174L54 162L54 150L66 138L66 126M66 498L54 486L54 474L54 462L54 450L54 438L42 426L42 414L42 402L42 390L42 378L42 366M78 558L66 546L66 534L66 522M54 426L66 414L66 402L66 390M42 306L30 294L30 282L30 270L30 258L30 246L30 234L30 222L30 210M30 138L42 126L42 114L42 102L42 90M42 330L30 318L30 306M54 246L42 234L42 222M54 258L42 246M42 342L30 330M42 198L54 186L66 174L66 162L66 150L78 138L78 126L78 114L78 102L66 90L66 78L66 66L66 54L66 42L66 30M42 162L42 150L42 138L54 126L54 114L54 102L54 90M54 222L54 210L54 198L66 186L78 174L78 162L78 150L90 138L90 126L90 114L90 102M54 270L42 258M102 798L102 786L102 774L102 762L102 750L102 738L102 726L90 714L90 702L90 690L78 678L78 666L78 654L78 642L78 630L78 618L78 606L78 594L78 582L78 570L78 558L78 546L78 534L78 522L78 510L66 498L66 486L66 474L66 462L66 450L66 438L54 426L54 414L54 402L54 390L54 378L54 366L54 354L42 342L42 330L42 318L42 306L42 294L42 282L54 270L54 258L54 246L54 234L54 222L42 210L42 198L42 186L42 174L42 162L30 150L30 138L30 126L30 114" stroke="url(&quot;#SvgjsLinearGradient2275&quot;)" stroke-width="2"></path>
            <path d="M27 114 a3 3 0 1 0 6 0 a3 3 0 1 0 -6 0zM63 126 a3 3 0 1 0 6 0 a3 3 0 1 0 -6 0zM39 366 a3 3 0 1 0 6 0 a3 3 0 1 0 -6 0zM63 522 a3 3 0 1 0 6 0 a3 3 0 1 0 -6 0zM63 390 a3 3 0 1 0 6 0 a3 3 0 1 0 -6 0zM27 210 a3 3 0 1 0 6 0 a3 3 0 1 0 -6 0zM39 90 a3 3 0 1 0 6 0 a3 3 0 1 0 -6 0zM27 306 a3 3 0 1 0 6 0 a3 3 0 1 0 -6 0zM39 222 a3 3 0 1 0 6 0 a3 3 0 1 0 -6 0zM39 246 a3 3 0 1 0 6 0 a3 3 0 1 0 -6 0zM27 330 a3 3 0 1 0 6 0 a3 3 0 1 0 -6 0zM63 30 a3 3 0 1 0 6 0 a3 3 0 1 0 -6 0zM51 90 a3 3 0 1 0 6 0 a3 3 0 1 0 -6 0zM87 102 a3 3 0 1 0 6 0 a3 3 0 1 0 -6 0zM39 258 a3 3 0 1 0 6 0 a3 3 0 1 0 -6 0z" fill="url(&quot;#SvgjsLinearGradient2275&quot;)"></path>
            <path d="M234 702L234 690M234 630L246 618L246 606M210 798L210 786L210 774L210 762L222 750L234 738L234 726L234 714L234 702L246 690L246 678L246 666L246 654L246 642L234 630L234 618L234 606L246 594L246 582L246 570L246 558L246 546" stroke="url(&quot;#SvgjsLinearGradient2275&quot;)" stroke-width="2"></path>
            <path d="M243 546 a3 3 0 1 0 6 0 a3 3 0 1 0 -6 0zM231 690 a3 3 0 1 0 6 0 a3 3 0 1 0 -6 0zM243 606 a3 3 0 1 0 6 0 a3 3 0 1 0 -6 0z" fill="url(&quot;#SvgjsLinearGradient2275&quot;)"></path>
            <path d="M90 738L78 726M66 582L54 570L42 558L42 546M30 486L42 474M66 666L54 654L54 642L54 630M66 594L54 582L42 570M30 462L42 450L42 438L30 426L30 414M66 570L66 558M90 798L90 786L90 774L90 762L90 750L90 738L90 726L78 714L78 702L78 690L66 678L66 666L66 654L66 642L66 630L66 618L66 606L66 594L66 582L66 570L54 558L54 546L54 534L42 522L30 510L30 498L30 486L30 474L30 462L30 450" stroke="url(&quot;#SvgjsLinearGradient2275&quot;)" stroke-width="2"></path>
            <path d="M27 450 a3 3 0 1 0 6 0 a3 3 0 1 0 -6 0zM75 726 a3 3 0 1 0 6 0 a3 3 0 1 0 -6 0zM39 546 a3 3 0 1 0 6 0 a3 3 0 1 0 -6 0zM39 474 a3 3 0 1 0 6 0 a3 3 0 1 0 -6 0zM51 630 a3 3 0 1 0 6 0 a3 3 0 1 0 -6 0zM39 570 a3 3 0 1 0 6 0 a3 3 0 1 0 -6 0zM27 414 a3 3 0 1 0 6 0 a3 3 0 1 0 -6 0zM63 558 a3 3 0 1 0 6 0 a3 3 0 1 0 -6 0z" fill="url(&quot;#SvgjsLinearGradient2275&quot;)"></path>
            <path d="M258 306L270 294L270 282L270 270L270 258L270 246L270 234L270 222L270 210M258 366L270 354L270 342L270 330L282 318L282 306L282 294L282 282L282 270L282 258L282 246L282 234L282 222L282 210L270 198L270 186L270 174M258 546L258 534L258 522L258 510L258 498M258 594L270 582L270 570L270 558L270 546L282 534L282 522L282 510L282 498L282 486L282 474L282 462L282 450L282 438M258 318L270 306M258 378L270 366L282 354M258 162L270 150L270 138L258 126L258 114L258 102L258 90L258 78L258 66M246 714L258 702L270 690L270 678L270 666M258 642L270 630L270 618L270 606L270 594L282 582L282 570L282 558M246 210L258 198M258 390L270 378L282 366M270 450L270 438L270 426L270 414L270 402L270 390L282 378M258 186L246 174L246 162M222 798L222 786L222 774L222 762L234 750L246 738L246 726L246 714L246 702L258 690L258 678L258 666L258 654L258 642L258 630L258 618L258 606L258 594L258 582L258 570L258 558L258 546L270 534L270 522L270 510L270 498L270 486L270 474L270 462L270 450L258 438L258 426L258 414L258 402L258 390L258 378L258 366L258 354L258 342L258 330L258 318L258 306L258 294L258 282L258 270L258 258L258 246L258 234L258 222L246 210L246 198L258 186L258 174L258 162L258 150" stroke="url(&quot;#SvgjsLinearGradient2275&quot;)" stroke-width="2"></path>
            <path d="M255 150 a3 3 0 1 0 6 0 a3 3 0 1 0 -6 0zM267 210 a3 3 0 1 0 6 0 a3 3 0 1 0 -6 0zM267 174 a3 3 0 1 0 6 0 a3 3 0 1 0 -6 0zM255 498 a3 3 0 1 0 6 0 a3 3 0 1 0 -6 0zM279 438 a3 3 0 1 0 6 0 a3 3 0 1 0 -6 0zM267 306 a3 3 0 1 0 6 0 a3 3 0 1 0 -6 0zM279 354 a3 3 0 1 0 6 0 a3 3 0 1 0 -6 0zM255 66 a3 3 0 1 0 6 0 a3 3 0 1 0 -6 0zM267 666 a3 3 0 1 0 6 0 a3 3 0 1 0 -6 0zM279 558 a3 3 0 1 0 6 0 a3 3 0 1 0 -6 0zM255 198 a3 3 0 1 0 6 0 a3 3 0 1 0 -6 0zM279 366 a3 3 0 1 0 6 0 a3 3 0 1 0 -6 0zM279 378 a3 3 0 1 0 6 0 a3 3 0 1 0 -6 0zM243 162 a3 3 0 1 0 6 0 a3 3 0 1 0 -6 0z" fill="url(&quot;#SvgjsLinearGradient2275&quot;)"></path>
            <path d="M66 702L66 690M42 678L54 666M66 762L78 750L78 738M78 798L78 786L78 774L66 762L66 750L66 738L66 726L66 714L66 702L54 690L42 678L42 666L42 654L42 642" stroke="url(&quot;#SvgjsLinearGradient2275&quot;)" stroke-width="2"></path>
            <path d="M39 642 a3 3 0 1 0 6 0 a3 3 0 1 0 -6 0zM63 690 a3 3 0 1 0 6 0 a3 3 0 1 0 -6 0zM51 666 a3 3 0 1 0 6 0 a3 3 0 1 0 -6 0zM75 738 a3 3 0 1 0 6 0 a3 3 0 1 0 -6 0z" fill="url(&quot;#SvgjsLinearGradient2275&quot;)"></path>
        </g>
    </g>
    <defs>
        <mask id="SvgjsMask2274">
            <rect width="300" height="780" fill="#ffffff"></rect>
        </mask>
        <linearGradient x1="-120" y1="660.0360000000001" x2="420" y2="119.96400000000001" gradientUnits="userSpaceOnUse" id="SvgjsLinearGradient2275">
            <stop stop-color="#3a7cc3" offset="0"></stop>
            <stop stop-color="rgba(84, 61, 107, 1)" offset="0.73"></stop>
            <stop stop-color="rgba(102, 72, 133, 1)" offset="0.88"></stop>
        </linearGradient>
        <mask id="SvgjsMask2276">
            <rect width="300" height="780" fill="white"></rect>
            <path d="M148.5 510 a1.5 1.5 0 1 0 3 0 a1.5 1.5 0 1 0 -3 0zM160.5 522 a1.5 1.5 0 1 0 3 0 a1.5 1.5 0 1 0 -3 0zM160.5 594 a1.5 1.5 0 1 0 3 0 a1.5 1.5 0 1 0 -3 0zM148.5 630 a1.5 1.5 0 1 0 3 0 a1.5 1.5 0 1 0 -3 0zM148.5 666 a1.5 1.5 0 1 0 3 0 a1.5 1.5 0 1 0 -3 0zM160.5 618 a1.5 1.5 0 1 0 3 0 a1.5 1.5 0 1 0 -3 0z" fill="black"></path>
            <path d="M172.5 582 a1.5 1.5 0 1 0 3 0 a1.5 1.5 0 1 0 -3 0zM172.5 726 a1.5 1.5 0 1 0 3 0 a1.5 1.5 0 1 0 -3 0zM172.5 690 a1.5 1.5 0 1 0 3 0 a1.5 1.5 0 1 0 -3 0z" fill="black"></path>
            <path d="M184.5 126 a1.5 1.5 0 1 0 3 0 a1.5 1.5 0 1 0 -3 0zM148.5 486 a1.5 1.5 0 1 0 3 0 a1.5 1.5 0 1 0 -3 0zM148.5 354 a1.5 1.5 0 1 0 3 0 a1.5 1.5 0 1 0 -3 0zM124.5 594 a1.5 1.5 0 1 0 3 0 a1.5 1.5 0 1 0 -3 0zM172.5 198 a1.5 1.5 0 1 0 3 0 a1.5 1.5 0 1 0 -3 0zM148.5 294 a1.5 1.5 0 1 0 3 0 a1.5 1.5 0 1 0 -3 0zM124.5 618 a1.5 1.5 0 1 0 3 0 a1.5 1.5 0 1 0 -3 0zM124.5 450 a1.5 1.5 0 1 0 3 0 a1.5 1.5 0 1 0 -3 0zM208.5 234 a1.5 1.5 0 1 0 3 0 a1.5 1.5 0 1 0 -3 0zM124.5 510 a1.5 1.5 0 1 0 3 0 a1.5 1.5 0 1 0 -3 0zM196.5 78 a1.5 1.5 0 1 0 3 0 a1.5 1.5 0 1 0 -3 0zM124.5 330 a1.5 1.5 0 1 0 3 0 a1.5 1.5 0 1 0 -3 0zM136.5 414 a1.5 1.5 0 1 0 3 0 a1.5 1.5 0 1 0 -3 0zM220.5 234 a1.5 1.5 0 1 0 3 0 a1.5 1.5 0 1 0 -3 0zM196.5 330 a1.5 1.5 0 1 0 3 0 a1.5 1.5 0 1 0 -3 0z" fill="black"></path>
            <path d="M196.5 378 a1.5 1.5 0 1 0 3 0 a1.5 1.5 0 1 0 -3 0zM172.5 750 a1.5 1.5 0 1 0 3 0 a1.5 1.5 0 1 0 -3 0zM196.5 654 a1.5 1.5 0 1 0 3 0 a1.5 1.5 0 1 0 -3 0zM220.5 330 a1.5 1.5 0 1 0 3 0 a1.5 1.5 0 1 0 -3 0zM172.5 450 a1.5 1.5 0 1 0 3 0 a1.5 1.5 0 1 0 -3 0zM196.5 702 a1.5 1.5 0 1 0 3 0 a1.5 1.5 0 1 0 -3 0zM184.5 534 a1.5 1.5 0 1 0 3 0 a1.5 1.5 0 1 0 -3 0zM208.5 462 a1.5 1.5 0 1 0 3 0 a1.5 1.5 0 1 0 -3 0zM184.5 450 a1.5 1.5 0 1 0 3 0 a1.5 1.5 0 1 0 -3 0zM208.5 570 a1.5 1.5 0 1 0 3 0 a1.5 1.5 0 1 0 -3 0z" fill="black"></path>
            <path d="M124.5 714 a1.5 1.5 0 1 0 3 0 a1.5 1.5 0 1 0 -3 0z" fill="black"></path>
            <path d="M208.5 678 a1.5 1.5 0 1 0 3 0 a1.5 1.5 0 1 0 -3 0zM196.5 726 a1.5 1.5 0 1 0 3 0 a1.5 1.5 0 1 0 -3 0z" fill="black"></path>
            <path d="M88.5 270 a1.5 1.5 0 1 0 3 0 a1.5 1.5 0 1 0 -3 0zM100.5 606 a1.5 1.5 0 1 0 3 0 a1.5 1.5 0 1 0 -3 0zM100.5 438 a1.5 1.5 0 1 0 3 0 a1.5 1.5 0 1 0 -3 0zM112.5 546 a1.5 1.5 0 1 0 3 0 a1.5 1.5 0 1 0 -3 0zM76.5 294 a1.5 1.5 0 1 0 3 0 a1.5 1.5 0 1 0 -3 0zM76.5 342 a1.5 1.5 0 1 0 3 0 a1.5 1.5 0 1 0 -3 0zM112.5 342 a1.5 1.5 0 1 0 3 0 a1.5 1.5 0 1 0 -3 0zM112.5 210 a1.5 1.5 0 1 0 3 0 a1.5 1.5 0 1 0 -3 0zM88.5 462 a1.5 1.5 0 1 0 3 0 a1.5 1.5 0 1 0 -3 0zM100.5 294 a1.5 1.5 0 1 0 3 0 a1.5 1.5 0 1 0 -3 0zM76.5 246 a1.5 1.5 0 1 0 3 0 a1.5 1.5 0 1 0 -3 0zM64.5 258 a1.5 1.5 0 1 0 3 0 a1.5 1.5 0 1 0 -3 0z" fill="black"></path>
            <path d="M244.5 102 a1.5 1.5 0 1 0 3 0 a1.5 1.5 0 1 0 -3 0zM220.5 174 a1.5 1.5 0 1 0 3 0 a1.5 1.5 0 1 0 -3 0zM244.5 222 a1.5 1.5 0 1 0 3 0 a1.5 1.5 0 1 0 -3 0zM208.5 606 a1.5 1.5 0 1 0 3 0 a1.5 1.5 0 1 0 -3 0zM256.5 450 a1.5 1.5 0 1 0 3 0 a1.5 1.5 0 1 0 -3 0zM220.5 30 a1.5 1.5 0 1 0 3 0 a1.5 1.5 0 1 0 -3 0zM244.5 294 a1.5 1.5 0 1 0 3 0 a1.5 1.5 0 1 0 -3 0zM220.5 414 a1.5 1.5 0 1 0 3 0 a1.5 1.5 0 1 0 -3 0zM232.5 642 a1.5 1.5 0 1 0 3 0 a1.5 1.5 0 1 0 -3 0zM244.5 390 a1.5 1.5 0 1 0 3 0 a1.5 1.5 0 1 0 -3 0zM220.5 522 a1.5 1.5 0 1 0 3 0 a1.5 1.5 0 1 0 -3 0zM244.5 426 a1.5 1.5 0 1 0 3 0 a1.5 1.5 0 1 0 -3 0zM232.5 342 a1.5 1.5 0 1 0 3 0 a1.5 1.5 0 1 0 -3 0zM256.5 486 a1.5 1.5 0 1 0 3 0 a1.5 1.5 0 1 0 -3 0zM244.5 270 a1.5 1.5 0 1 0 3 0 a1.5 1.5 0 1 0 -3 0z" fill="black"></path>
            <path d="M28.5 114 a1.5 1.5 0 1 0 3 0 a1.5 1.5 0 1 0 -3 0zM64.5 126 a1.5 1.5 0 1 0 3 0 a1.5 1.5 0 1 0 -3 0zM40.5 366 a1.5 1.5 0 1 0 3 0 a1.5 1.5 0 1 0 -3 0zM64.5 522 a1.5 1.5 0 1 0 3 0 a1.5 1.5 0 1 0 -3 0zM64.5 390 a1.5 1.5 0 1 0 3 0 a1.5 1.5 0 1 0 -3 0zM28.5 210 a1.5 1.5 0 1 0 3 0 a1.5 1.5 0 1 0 -3 0zM40.5 90 a1.5 1.5 0 1 0 3 0 a1.5 1.5 0 1 0 -3 0zM28.5 306 a1.5 1.5 0 1 0 3 0 a1.5 1.5 0 1 0 -3 0zM40.5 222 a1.5 1.5 0 1 0 3 0 a1.5 1.5 0 1 0 -3 0zM40.5 246 a1.5 1.5 0 1 0 3 0 a1.5 1.5 0 1 0 -3 0zM28.5 330 a1.5 1.5 0 1 0 3 0 a1.5 1.5 0 1 0 -3 0zM64.5 30 a1.5 1.5 0 1 0 3 0 a1.5 1.5 0 1 0 -3 0zM52.5 90 a1.5 1.5 0 1 0 3 0 a1.5 1.5 0 1 0 -3 0zM88.5 102 a1.5 1.5 0 1 0 3 0 a1.5 1.5 0 1 0 -3 0zM40.5 258 a1.5 1.5 0 1 0 3 0 a1.5 1.5 0 1 0 -3 0z" fill="black"></path>
            <path d="M244.5 546 a1.5 1.5 0 1 0 3 0 a1.5 1.5 0 1 0 -3 0zM232.5 690 a1.5 1.5 0 1 0 3 0 a1.5 1.5 0 1 0 -3 0zM244.5 606 a1.5 1.5 0 1 0 3 0 a1.5 1.5 0 1 0 -3 0z" fill="black"></path>
            <path d="M28.5 450 a1.5 1.5 0 1 0 3 0 a1.5 1.5 0 1 0 -3 0zM76.5 726 a1.5 1.5 0 1 0 3 0 a1.5 1.5 0 1 0 -3 0zM40.5 546 a1.5 1.5 0 1 0 3 0 a1.5 1.5 0 1 0 -3 0zM40.5 474 a1.5 1.5 0 1 0 3 0 a1.5 1.5 0 1 0 -3 0zM52.5 630 a1.5 1.5 0 1 0 3 0 a1.5 1.5 0 1 0 -3 0zM40.5 570 a1.5 1.5 0 1 0 3 0 a1.5 1.5 0 1 0 -3 0zM28.5 414 a1.5 1.5 0 1 0 3 0 a1.5 1.5 0 1 0 -3 0zM64.5 558 a1.5 1.5 0 1 0 3 0 a1.5 1.5 0 1 0 -3 0z" fill="black"></path>
            <path d="M256.5 150 a1.5 1.5 0 1 0 3 0 a1.5 1.5 0 1 0 -3 0zM268.5 210 a1.5 1.5 0 1 0 3 0 a1.5 1.5 0 1 0 -3 0zM268.5 174 a1.5 1.5 0 1 0 3 0 a1.5 1.5 0 1 0 -3 0zM256.5 498 a1.5 1.5 0 1 0 3 0 a1.5 1.5 0 1 0 -3 0zM280.5 438 a1.5 1.5 0 1 0 3 0 a1.5 1.5 0 1 0 -3 0zM268.5 306 a1.5 1.5 0 1 0 3 0 a1.5 1.5 0 1 0 -3 0zM280.5 354 a1.5 1.5 0 1 0 3 0 a1.5 1.5 0 1 0 -3 0zM256.5 66 a1.5 1.5 0 1 0 3 0 a1.5 1.5 0 1 0 -3 0zM268.5 666 a1.5 1.5 0 1 0 3 0 a1.5 1.5 0 1 0 -3 0zM280.5 558 a1.5 1.5 0 1 0 3 0 a1.5 1.5 0 1 0 -3 0zM256.5 198 a1.5 1.5 0 1 0 3 0 a1.5 1.5 0 1 0 -3 0zM280.5 366 a1.5 1.5 0 1 0 3 0 a1.5 1.5 0 1 0 -3 0zM280.5 378 a1.5 1.5 0 1 0 3 0 a1.5 1.5 0 1 0 -3 0zM244.5 162 a1.5 1.5 0 1 0 3 0 a1.5 1.5 0 1 0 -3 0z" fill="black"></path>
            <path d="M40.5 642 a1.5 1.5 0 1 0 3 0 a1.5 1.5 0 1 0 -3 0zM64.5 690 a1.5 1.5 0 1 0 3 0 a1.5 1.5 0 1 0 -3 0zM52.5 666 a1.5 1.5 0 1 0 3 0 a1.5 1.5 0 1 0 -3 0zM76.5 738 a1.5 1.5 0 1 0 3 0 a1.5 1.5 0 1 0 -3 0z" fill="black"></path>
        </mask>
    </defs>
</svg>