<?xml version="1.0" encoding="UTF-8"?>
<svg id="Layer_1" data-name="Layer 1" xmlns="http://www.w3.org/2000/svg"  viewBox="0 0 253.28 223.46">
  <defs>
    <style>
      .cls-1 {
        fill: #189eda;
      }
    </style>
  </defs>
  <path class="cls-1" d="m72.25,113.67c0,1.21,0,2.23,0,3.26,0,13.51,0,27.02,0,40.53,0,1.49-.09,1.58-1.54,1.59-3.36,0-6.71,0-10.07,0-1.87,0-1.87,0-1.87-1.82,0-23.74,0-47.49.01-71.23,0-20.87,0-41.73.01-62.6q0-1.86,1.84-1.86c3.28,0,6.55,0,9.83,0,1.62,0,1.77.15,1.77,1.8,0,14.51,0,29.02.01,43.53,0,.36-.28.89.21,1.07.42.15.7-.31.97-.59,3.09-3.14,6.12-6.34,9.26-9.42,3.48-3.41,6.93-6.85,10.34-10.33,3.38-3.45,6.78-6.88,10.26-10.23,2.8-2.7,5.43-5.55,8.29-8.19,2.21-2.04,4.27-4.25,6.33-6.45.55-.58,1.15-.48,1.75-.48,10.39-.01,20.78,0,31.17,0,26.89,0,53.79.01,80.68.02.56,0,1.12-.03,1.68-.03.26,0,.62-.17.73.19.09.3-.21.49-.41.68-3.26,3.27-6.53,6.53-9.8,9.79-7.68,7.67-15.37,15.34-23.04,23.02-6.94,6.95-13.85,13.93-20.79,20.88-3.18,3.19-6.4,6.36-9.58,9.55-.59.6-.96.22-.96.22,0,0-7.54-7.1-7.71-7.75-.24-.16.65-.9,1.44-1.6,4.89-4.87,9.91-9.68,14.79-14.57,4.18-4.18,8.39-8.32,12.51-12.55,2.84-2.91,5.79-5.7,8.59-8.65,2.05-2.16,4.22-4.23,6.37-6.29.36-.35.97-.69.74-1.25-.24-.58-.92-.33-1.41-.33-5.24-.01-10.47-.13-15.7.04-4.35.14-8.7-.18-13.05-.06-3.01.08-3.08-.04-5.02,2.15-1.45,1.65-3.08,3.11-4.58,4.69-2.24,2.37-4.62,4.61-6.91,6.92-2.44,2.46-4.82,4.97-7.27,7.42-3.94,3.94-4.98,8.83-4.23,14.06.46,3.22,1.92,6.17,4.34,8.57,6.11,6.03,12.14,12.13,18.21,18.21,3.27,3.28,6.59,6.51,9.81,9.83,2.77,2.86,5.62,5.66,8.42,8.49,3.02,3.05,6.1,6.05,9.14,9.1,2.86,2.87,5.72,5.74,8.57,8.62,2.15,2.18,4.36,4.3,6.52,6.46,2.22,2.22,4.48,4.4,6.62,6.7,2.05,2.21,4.31,4.22,6.45,6.35,2.14,2.12,4.26,4.26,6.36,6.43.29.3.86.66.6,1.19-.23.45-.79.26-1.21.26-37.01.01-74.01,0-111.02.1-2.54,0-4.07-1.08-5.58-2.76-1.19-1.32-2.5-2.54-3.76-3.8-1.26-1.27-2.54-2.51-3.74-3.83-.41-.45-.92-.75-1.34-1.18-3.05-3.14-6.1-6.28-9.19-9.39-2.18-2.18-4.44-4.28-6.62-6.46-2.19-2.18-4.31-4.43-6.49-6.62-1.76-1.76-3.58-3.46-5.35-5.22-1.65-1.65-3.28-3.32-4.89-5.01-.42-.44-.9-.73-1.5-1.17Zm.98-22.63c-.41,3.16.84,5.97,2.3,8.75,1.1,2.09,2.93,3.55,4.55,5.15,1.75,1.72,3.41,3.54,5.26,5.15.34.3.57.92,1.12.78.56-.15.47-.79.54-1.23.27-1.79.92-3.48,1.61-5.1,1.53-3.58,3.87-6.71,6.68-9.37,3.2-3.03,6.22-6.24,9.39-9.3,2.95-2.84,5.8-5.78,8.69-8.67,2.03-2.03,3.98-4.15,6.06-6.12,3.4-3.23,6.58-6.68,9.95-9.93,2.06-1.98,3.95-4.15,6.03-6.1,2.63-2.46,5.03-5.14,7.68-7.58,1.78-1.64,3.46-3.4,5.17-5.11,1.12-1.12,2.22-2.26,3.34-3.38,1.26-1.26,2.52-2.53,3.78-3.78.39-.38,1.05-.69.82-1.32-.2-.53-.85-.26-1.3-.3-.24-.03-.48,0-.72,0-4.95.07-9.91.1-14.86.1-4.87,0-9.75,0-14.62-.09-.71-.01-1.35.11-1.88.61-1.56,1.48-3.17,2.91-4.69,4.44-3.02,3.06-6,6.16-8.98,9.27-.49.51-1.1.86-1.58,1.42-1.04,1.21-2.07,2.51-3.31,3.46-1.44,1.1-2.62,2.44-3.81,3.71-2.78,2.98-5.91,5.62-8.54,8.74-1.24,1.47-2.78,2.62-4.08,4.05-2.18,2.38-4.65,4.5-6.89,6.83-1.24,1.29-2.56,2.5-3.75,3.82-.74.82-1.48,1.69-1.99,2.67-1.36,2.6-2.3,5.34-1.97,8.44Zm132.15,56.17c-.3-.35-.53-.67-.81-.95-3.44-3.45-6.87-6.9-10.32-10.35-7.38-7.39-14.8-14.75-22.15-22.17-3.12-3.14-6.22-6.31-9.33-9.46-2.68-2.72-5.44-5.39-8.16-8.07-1.84-1.81-3.62-3.68-5.46-5.49-2.62-2.56-5.4-5-7.51-8.02-2.33-3.33-4.13-6.94-4.86-11.01-.06-.34-.04-.77-.51-.86-.43-.08-.62.29-.87.53-1.33,1.32-2.69,2.61-3.98,3.97-2.23,2.36-4.39,4.67-6.43,7.32-6.08,7.93.26,17.05,2.07,19.42s5.65,5.68,8.49,8.49c1.74,1.72,3.48,3.45,5.22,5.18,1.6,1.59,3.26,3.13,4.78,4.8,2.21,2.43,4.66,4.61,6.93,6.98,1.18,1.23,2.42,2.4,3.63,3.6,1.7,1.7,3.41,3.4,5.1,5.11,1.22,1.23,2.46,2.46,3.71,3.66,2.08,2,3.99,4.18,6.08,6.16.69.65,1.34,1.45,2.61,1.44,10.15-.07,20.3-.04,30.45-.05.39,0,.8.1,1.3-.26Zm-49.6.13c-.68-.76-34.55-34.66-35.99-36.12-2.07-2.11-3.75-4.48-5.21-7.08-1.29-2.3-2.07-4.69-2.57-7.23-.09-.47-.01-1.06-.58-1.2-.47-.11-.72.4-1.04.68-1.33,1.15-6.97,6.89-8.43,8.71-2.08,2.59-3.66,5.4-3.96,8.74-.36,3.93.23,7.7,2.61,11.01,1.15,1.61,20.4,22.63,23.32,22.63s20.53,0,30.79-.02c.38,0,.8.13,1.06-.12Z"/>
  <path class="cls-1" d="m37.3,90.4c0,22.22,0,44.44,0,66.66q0,1.99-1.96,1.99c-3.36,0-6.71,0-10.07,0-1.61,0-1.71-.09-1.71-1.68,0-24.5.14-133.08.09-134.96-.03-.91.68-.88,1.31-.88,3.4,0,6.79,0,10.19,0,.24,0,.48.02.72,0,1.02-.1,1.44.32,1.41,1.38-.05,2.16-.01,4.32-.01,6.47,0,20.34,0,40.69,0,61.03h.03Z"/>
  <path class="cls-1" d="m40.28,182.29c1.67.93,3.34,1.28,4.71,2.28,2.56,1.88,4.46,4.2,5.43,7.3.84,2.68.42,5.39.53,8.08.08,1.98.04,1.98-1.97,1.99-3.25.03-2.66.11-2.71-2.67-.04-2.11.23-4.26-.54-6.27-.83-2.16-2.2-3.81-4.37-4.95-1.94-1.02-3.89-.93-5.9-1.02-1.84.26-2.7,1.06-3.85,1.91-.89.66-1.58,1.25-2.55,2.16-.41.31-.54,1.17-.58,1.84-.14,2.38-.23,3.21-.18,7.02.03,1.98.11,1.98-1.87,1.97-3.41,0-2.91.3-2.92-2.95-.02-8.07,0-16.14,0-24.22,0-1.57.05-1.61,1.62-1.61,4.03,0,3.4-.32,3.45,3.46.03,2.04-.09,8.35-.09,8.35,0,0,.81-.3,1.09-.5,3.07-2.22,6-4.48,8.95-6.86,1.64-1.33,3.46-2.43,4.94-3.96.38-.4.92-.46,1.45-.47,1.8-.01,3.6-.02,5.39-.01.34,0,.8-.08.9.38.09.37-.31.52-.55.71-3.27,2.55-6.55,5.1-9.83,7.65-.13.1-.26.18-.56.39Z"/>
  <path class="cls-1" d="m131.7,187.79c0,4.15,0,8.3,0,12.46,0,1.46-.2,1.67-1.65,1.68-3.84.02-3.33.25-3.35-3.32-.02-2.87-.02-5.75,0-8.62.01-1.39-.09-13.75-.03-15.37.03-.94.28-1.32,1.3-1.38,3.67-.21,3.72-.21,3.72,3.42,0,3.71,0,7.43,0,11.14h0Z"/>
  <path class="cls-1" d="m230.23,187.54c0-4.24.03-8.47-.02-12.71-.01-1.15.37-1.53,1.52-1.51,3.62.07,3.1-.31,3.11,3.04.02,7.91.01,15.82.01,23.74,0,1.68-.12,1.82-1.87,1.82-3.2,0-2.74.24-2.75-2.75-.01-3.88,0-7.75,0-11.63h0Z"/>
</svg>