<svg xmlns="http://www.w3.org/2000/svg" version="1.1" xmlns:xlink="http://www.w3.org/1999/xlink" xmlns:svgjs="http://svgjs.dev/svgjs" width="1260"  viewBox="0 0 1260 450"><g mask="url(&quot;#SvgjsMask1096&quot;)" fill="none"><path d="M1146 198L1145 -134" stroke-width="6" stroke="url(&quot;#SvgjsLinearGradient1097&quot;)" stroke-linecap="round" class="Up"></path><path d="M140 177L139 -122" stroke-width="8" stroke="url(&quot;#SvgjsLinearGradient1097&quot;)" stroke-linecap="round" class="Up"></path><path d="M1222 373L1221 656" stroke-width="10" stroke="url(&quot;#SvgjsLinearGradient1098&quot;)" stroke-linecap="round" class="Down"></path><path d="M303 261L302 543" stroke-width="6" stroke="url(&quot;#SvgjsLinearGradient1098&quot;)" stroke-linecap="round" class="Down"></path><path d="M1057 115L1056 318" stroke-width="6" stroke="url(&quot;#SvgjsLinearGradient1097&quot;)" stroke-linecap="round" class="Up"></path><path d="M960 270L959 447" stroke-width="10" stroke="url(&quot;#SvgjsLinearGradient1098&quot;)" stroke-linecap="round" class="Down"></path><path d="M1245 198L1244 358" stroke-width="10" stroke="url(&quot;#SvgjsLinearGradient1097&quot;)" stroke-linecap="round" class="Up"></path><path d="M19 90L18 392" stroke-width="10" stroke="url(&quot;#SvgjsLinearGradient1098&quot;)" stroke-linecap="round" class="Down"></path><path d="M108 89L107 246" stroke-width="10" stroke="url(&quot;#SvgjsLinearGradient1097&quot;)" stroke-linecap="round" class="Up"></path><path d="M643 20L642 255" stroke-width="6" stroke="url(&quot;#SvgjsLinearGradient1098&quot;)" stroke-linecap="round" class="Down"></path><path d="M229 185L228 -108" stroke-width="10" stroke="url(&quot;#SvgjsLinearGradient1098&quot;)" stroke-linecap="round" class="Down"></path><path d="M540 243L539 377" stroke-width="10" stroke="url(&quot;#SvgjsLinearGradient1097&quot;)" stroke-linecap="round" class="Up"></path><path d="M1249 17L1248 -217" stroke-width="8" stroke="url(&quot;#SvgjsLinearGradient1097&quot;)" stroke-linecap="round" class="Up"></path><path d="M1113 322L1112 472" stroke-width="8" stroke="url(&quot;#SvgjsLinearGradient1097&quot;)" stroke-linecap="round" class="Up"></path><path d="M904 116L903 445" stroke-width="8" stroke="url(&quot;#SvgjsLinearGradient1097&quot;)" stroke-linecap="round" class="Up"></path><path d="M4 22L3 -189" stroke-width="10" stroke="url(&quot;#SvgjsLinearGradient1098&quot;)" stroke-linecap="round" class="Down"></path><path d="M83 64L82 -213" stroke-width="10" stroke="url(&quot;#SvgjsLinearGradient1098&quot;)" stroke-linecap="round" class="Down"></path><path d="M924 385L923 688" stroke-width="8" stroke="url(&quot;#SvgjsLinearGradient1097&quot;)" stroke-linecap="round" class="Up"></path><path d="M1052 302L1051 507" stroke-width="6" stroke="url(&quot;#SvgjsLinearGradient1098&quot;)" stroke-linecap="round" class="Down"></path><path d="M984 305L983 158" stroke-width="8" stroke="url(&quot;#SvgjsLinearGradient1097&quot;)" stroke-linecap="round" class="Up"></path><path d="M116 141L115 -169" stroke-width="8" stroke="url(&quot;#SvgjsLinearGradient1098&quot;)" stroke-linecap="round" class="Down"></path><path d="M324 174L323 36" stroke-width="6" stroke="url(&quot;#SvgjsLinearGradient1097&quot;)" stroke-linecap="round" class="Up"></path><path d="M800 297L799 -2" stroke-width="8" stroke="url(&quot;#SvgjsLinearGradient1098&quot;)" stroke-linecap="round" class="Down"></path><path d="M57 244L56 128" stroke-width="10" stroke="url(&quot;#SvgjsLinearGradient1098&quot;)" stroke-linecap="round" class="Down"></path><path d="M943 134L942 318" stroke-width="6" stroke="url(&quot;#SvgjsLinearGradient1097&quot;)" stroke-linecap="round" class="Up"></path><path d="M958 406L957 250" stroke-width="6" stroke="url(&quot;#SvgjsLinearGradient1098&quot;)" stroke-linecap="round" class="Down"></path><path d="M1043 51L1042 366" stroke-width="10" stroke="url(&quot;#SvgjsLinearGradient1097&quot;)" stroke-linecap="round" class="Up"></path><path d="M1081 303L1080 67" stroke-width="6" stroke="url(&quot;#SvgjsLinearGradient1098&quot;)" stroke-linecap="round" class="Down"></path><path d="M520 74L519 286" stroke-width="8" stroke="url(&quot;#SvgjsLinearGradient1098&quot;)" stroke-linecap="round" class="Down"></path><path d="M1035 170L1034 -130" stroke-width="8" stroke="url(&quot;#SvgjsLinearGradient1097&quot;)" stroke-linecap="round" class="Up"></path><path d="M956 17L955 -315" stroke-width="8" stroke="url(&quot;#SvgjsLinearGradient1098&quot;)" stroke-linecap="round" class="Down"></path><path d="M596 210L595 374" stroke-width="6" stroke="url(&quot;#SvgjsLinearGradient1098&quot;)" stroke-linecap="round" class="Down"></path></g><defs><mask id="SvgjsMask1096"><rect width="1260" height="450" fill="#ffffff"></rect></mask><linearGradient x1="0%" y1="100%" x2="0%" y2="0%" id="SvgjsLinearGradient1097"><stop stop-color="rgba(37, 29, 69, 0)" offset="0"></stop><stop stop-color="rgba(37, 29, 69, 1)" offset="1"></stop></linearGradient><linearGradient x1="0%" y1="0%" x2="0%" y2="100%" id="SvgjsLinearGradient1098"><stop stop-color="rgba(37, 29, 69, 0)" offset="0"></stop><stop stop-color="rgba(37, 29, 69, 1)" offset="1"></stop></linearGradient></defs></svg>